/* XPM */
static char *_e63c07e334f4ffce234084c91c37296rgairiSpgBnnKAIj[] = {
/* columns rows colors chars-per-pixel */
"70 70 169 2 ",
"   c #DBBD7D",
".  c #E5BD77",
"X  c #E0BD7B",
"o  c #DFC07F",
"O  c #E6C17C",
"+  c #F9CC7F",
"@  c #76A7A7",
"#  c #78A7A7",
"$  c #7DAAA7",
"%  c #75A7A9",
"&  c #76A8AA",
"*  c #7CAAA9",
"=  c #94AF9F",
"-  c #97B09E",
";  c #9BB29E",
":  c #B6B58E",
">  c #BBB68C",
",  c #BEB98E",
"<  c #A6B397",
"1  c #ACB495",
"2  c #A4B49B",
"3  c #AAB699",
"4  c #ACB99D",
"5  c #B3B692",
"6  c #B9B790",
"7  c #B5B996",
"8  c #BBBB94",
"9  c #B6BC9A",
"0  c #B9BE9B",
"q  c #84ADA6",
"w  c #8BAEA5",
"e  c #80ACA8",
"r  c #91AFA1",
"t  c #8DB0A5",
"y  c #95B2A3",
"u  c #9BB5A2",
"i  c #9EB8A5",
"p  c #A1B7A1",
"a  c #A4BAA4",
"s  c #ACBCA2",
"d  c #B1BEA1",
"f  c #C5B786",
"g  c #C6B887",
"h  c #CCBA85",
"j  c #C1B789",
"k  c #C4BA8B",
"l  c #CBBC8A",
"z  c #D3BD84",
"x  c #DABF81",
"c  c #D1BF89",
"v  c #C2BD92",
"b  c #C8BF91",
"n  c #B7C09F",
"m  c #BAC19E",
"M  c #B5C1A2",
"N  c #BBC3A2",
"B  c #CDC18F",
"V  c #D7C086",
"C  c #DCC286",
"Z  c #D3C28C",
"A  c #DCC58A",
"S  c #C5C095",
"D  c #CBC395",
"F  c #C3C49C",
"G  c #CBC69A",
"H  c #CCC79A",
"J  c #CAC69A",
"K  c #C7C89F",
"L  c #C7C89F",
"P  c #CDC99C",
"I  c #CEC99C",
"U  c #CCC99E",
"Y  c #D0C696",
"T  c #D2C492",
"R  c #DAC791",
"E  c #D3C896",
"W  c #D5C997",
"Q  c #D6C997",
"!  c #D7CA97",
"~  c #D5C996",
"^  c #DEC991",
"/  c #DDC992",
"(  c #DBCB95",
")  c #D8CB97",
"_  c #DBCB95",
"`  c #D4CD9D",
"'  c #D4CE9F",
"]  c #D5CE9F",
"[  c #D7CF9E",
"{  c #D3CC9D",
"}  c #DCCD98",
"|  c #DCCF9B",
" . c #D9CF9D",
".. c #D9CE9C",
"X. c #D8CF9E",
"o. c #D9CE9B",
"O. c #DFD19C",
"+. c #DCD29F",
"@. c #DCD19E",
"#. c #E3C484",
"$. c #E9C784",
"%. c #EFC983",
"&. c #E1C78A",
"*. c #E5C888",
"=. c #F2CA82",
"-. c #F9CD81",
";. c #E1CD95",
":. c #E1CE95",
">. c #E1CF97",
",. c #E2CF96",
"<. c #E4CF95",
"1. c #E1CF98",
"2. c #E2CF98",
"3. c #E7D094",
"4. c #E8D296",
"5. c #EAD397",
"6. c #EBD295",
"7. c #E3D199",
"8. c #E0D19B",
"9. c #E4D199",
"0. c #E4D39A",
"q. c #E4D299",
"w. c #E1D39D",
"e. c #E1D39E",
"r. c #E4D49D",
"t. c #EAD69B",
"y. c #EDD89C",
"u. c #F4D694",
"i. c #FAD791",
"p. c #FDD992",
"a. c #F0DA9D",
"s. c #F9DE9C",
"d. c #C0C5A1",
"f. c #C4C7A1",
"g. c #C2C6A1",
"h. c #C6C8A0",
"j. c #C7C8A0",
"k. c #C4C8A2",
"l. c #C6C9A3",
"z. c #C7C9A2",
"x. c #C7CAA2",
"c. c #C6CAA3",
"v. c #C4C8A1",
"b. c #C6CAA4",
"n. c #C5C9A3",
"m. c #C9C9A1",
"M. c #C9CAA1",
"N. c #C8C9A2",
"B. c #C8CAA2",
"V. c #C9CBA2",
"C. c #CACBA3",
"Z. c #CBCCA3",
"A. c #CFCDA0",
"S. c #CDCDA3",
"D. c #CCCCA2",
"F. c #D2CEA1",
"G. c #D2CFA2",
"H. c #D4CFA1",
"J. c #D2CEA1",
"K. c #D6D1A1",
"L. c #DAD1A0",
"P. c #DCD4A2",
"I. c #DBD3A1",
"U. c #E2D6A1",
"Y. c #E7D9A1",
"T. c #EADAA1",
"R. c #F0DDA1",
"E. c #F7E0A0",
"W. c #FBE2A0",
/* pixels */
"> j 3 $ q T Y J 5.X.F.N c.X.9.} S _ u * - k , > , > w # 9 ^ S 4.| ` g.N K.| 6.m / 9 $ t 7 j > > j - $ u ^ S | 8.X.B.N F.X.6.J D D w * 3 k > ",
", = 3 2 e w S ! s d.f.P.B.c.s H E u q y 7 w 1 h ; ; 7 w e 4 o.m d f.F.H.B.d m _ 3 q w 1 ; ; h : w 5 = q y { J s f.B.P.f.d.d ) F w e 2 3 r , ",
"1 < q 4 2 * p } 9.` d.S.c.K 9.:.m $ y 7 w = 1 < 1 w ; 7 q w ! 1.w.d.B.B.N 8.4.! w q 7 ; w 5 2 1 - w 7 u # v :.9.j.f.S.N ` 8.:.p * 3 3 q < 1 ",
"$ 1 1 q 4 4 e y m 8.I.B.F.w.I u q y 8 w ; 5 w * ; 5 w ; 9 q w s X.w.D.D.w.` s w w 9 u w 7 - & w 5 ; w 9 y q i I w.H.C.I.w.m y q 2 9 q 3 1 $ ",
"; $ 3 3 q 4 4 $ * a I.N F.d.$ $ u 0 w u 5 w w : * ; 7 w u 0 q * t K.C.b.` w * q 9 u w 7 - $ : w w 7 ; w 9 u # e N F.N I.p * * 2 9 q 3 3 $ - ",
"h w * 3 9 q 4 s $ t B.M B.a * u 0 t ; 7 w $ :   ; * ; 7 w u 0 w $ N N N N e w 0 p w 9 ; $ ; . : $ w 7 u w 0 i # a C.M B.t q s 9 e 4 3 $ w h ",
"g > * * 2 4 q 9 s $ a W.c.* u 0 w ; 9 e & <   : g w * u 8 w u m q t T.Y.w w M p w 9 y % w h > h < * q 9 u w 0 u * B.W.a * s s e 4 3 * $ > g ",
"5 > w 2 q 4 4 q s s $ i q u M t u 9 w ; y < > - k - ; w y 0 t p N q y y q M u w 9 u w 2 r k ; : < r u w 9 u t N u q i $ s 9 q 4 4 e 2 w > 5 ",
"j X 7 Z u * 4 s q d s * y N t i 0 q e Z 7 o h > X l v 8 # u d r i M q q N i w 0 p & 8 v l X 6 h x 7 Z q w 0 u t N y * a d q d 4 * u Z 6 O k ",
"g > v 2 2 q e s d q d c.N t p d t * u 3 7 , > h 6 k 2 9 w e i d w i g.b.i r d u e w 3 3 k 6 h f k 7 3 u $ w 0 u t N n.M q d s q e 3 2 6 > l ",
"j l v C &.$ $ e s d s P.N a d w e & 0 =.k k g > l k l =.y * e u M p G.G.p d i e $ r =.b k g : f k v %.8 & e w M a N P.a s s q $ $ &.&.6 l j ",
"> z k =.v 4 y e q m I.b.K.` y e t 2 9 =.B l g , h k #.A 4 u q $ s I.C.S.U.a # q u 4 A $.k h > f l l =.9 a w $ t I.H.b.I.d.e e r 4 v =.k h , ",
"5 k l l 8 T 9 * u N M K.g.N s $ y Y S k l k > : k l l v T v q t d M S.S.M d r q F T v b l k : : h l D v Y u $ s N n.K.N N u $ 4 T 8 l l l 5 ",
"f > 1 v &.u % u M t a I.N q s s $ $ T Z 1 > , h 6 7 7 &.9 % w M i y G.S.t p d r # 9 &.7 6 6 z > 6 1 Z T e $ s s q N K.a w m i & u &.v 7 > j ",
"5 > $.Z 0 e u 0 t p M t s d q d s * 2 D $.k : 5 : V C S w w d p w M u u N w p d w w v x z : : : k $.D 2 $ 4 d q M a t M i w 0 u $ 0 c #.> 5 ",
"j x 7 r $ y 0 w i N t q e s d q 4 4 q w 2 z h > x k ; e w 0 p r N u q e i M t u 9 w q u v x : z z 2 w q a 9 q d s e w w d i w 0 u $ r 7 x j ",
": > e $ u 9 w u M w $ U.p * s 4 q 4 3 e * 1 > 1 g r $ w 9 u w d u % b.b.% u m w u 9 w * = j 1 , 1 * e 3 4 q d s # i U.e w m u w 0 u $ $ > 5 ",
"f 2 $ ; 9 w u 0 w e N R.K.t $ s 9 q 4 4 $ y j j : q w 9 ; w 0 u $ a T.T.a $ u m w u 7 w e : j j r $ 3 4 q 4 4 e y K.R.d.e w m u w 7 ; * < l ",
"j $ y 7 w ; 0 q * w K.s F.a # * s 4 q 3 2 * <   w q 7 ; w 0 u # * k.N N n.* & y 0 w ; 7 q w   < $ 3 3 q 4 4 * # a F.s K.w @ q 0 u w 7 - $ j ",
"$ u 5 w ; 9 e s m s I.a S.B.s F $ 3 4 q 3 3 e $ q 7 ; w 0 y w G p I.M M I.p J t y 9 w ; 5 w $ $ 3 3 q 4 4 $ F s c.B.a I.s m s q 9 u w 7 - $ ",
"- 5 w u 9 w * m n X.t.S.I.t.M F w e 3 4 q 1 < w : - w 9 u * p F F y.F.G.y.d.F i * u 7 w ; 5 w < 3 q 3 3 $ w F d t.I.C.t.@.0 m * w 9 ; w : ; ",
"> w ; 7 w e u F M P N I.c.F K F s e e 2 3 q 5 g - w 5 ; $ q S d U N S.K.N { n S q q - 7 w ; h : q 1 3 e $ s F f.d.C.K.N P M F y $ w 7 ; r > ",
", : 7 w e * y p.{ K +.k.K.@.F p.0 & e e < 5 > f 7 7 y e $ * 6.5.M r.S.b.r.m 6.3.$ $ q y 5 5 f > 7 < q e & S p.F @.K.k.U.F { p.u * $ w 5 5 : ",
", h ; $ q 0 v ! u.@.` c.Z.@.9.6.0 D y $ w l f > z 6 e e 2 J S u.@.@.c.S.@.X.i.m G 2 q $ 6 h : f l w * r G 0 5.8.X.S.c.F.@.u.{ S 8 q * ; z > ",
"> ; 5 = e 4 D J m L c.D.k.D.m F H 9 w w 7 2 1 h < 1 < $ u S J m m P c.c.D.F m { S u $ 2 3 < h 1 < 7 w w 9 H F m P k.S.c.c.m J D 3 e y 5 ; , ",
"> - w 6 y % 4 6.P K d.I.Z.F L <.Y $ w 1 ; w : : < q 3 3 & y <.o.L d.H.F.N J ! <.t & 4 3 q < > : q ; 7 q $ D 4.L d.Z.P.N F P 6.4 & y 7 w = > ",
"w 5 ; w 7 u q 4 | 9.D.n.c.X.t.0 r w 9 u w 5 - # < 3 q 1 3 $ p F y.S.c.c.{ y.F p $ 3 4 q 3 3 * = 7 w ; 0 q y n 5.@.c.n.S.9.o.s q ; 9 w = 5 w ",
"w q 7 ; t 9 u $ q M U.b.I.F.t $ w 9 u w 5 - q ; $ 3 3 w 4 4 $ q p t.S.S.w.i q $ 3 9 q 3 3 $ - q = 7 w u 0 q $ t { I.k.t.M q * u 0 w ; 7 w w ",
", $ w 7 ; w 0 u $ y C.M n.a & w 0 u w 7 u & <   w * 3 3 q 9 s $ $ g.N M d.$ e 4 4 q 4 3 # q   1 & ; 7 w ; m w & s c.s B.y * u 9 w u 7 w $ > ",
"  5 $ w 9 ; t m u * M T.F.q w m u w 9 u * ; z h k w e 3 4 e 9 s $ i U.U.u $ s d e 4 3 q w ,   h ; * u 9 t u 0 t q K.T.M $ u m w ; 9 w $ 5   ",
"1 5 $ q w 9 u t m y q S.u q M u w 9 u e e ; > - j w q e 3 4 q d s * M M $ s 4 q 4 4 e q w j - , ; e q y 0 w u M q u S.e y m w u 9 w q $ 5 1 ",
">   7 Z - q 0 u t M u % q N i t 0 u $ c 7 z h 5 x k b 7 * s 4 q s s * * s d q 4 4 * 7 l ,   5 h z 7 c $ u 0 t i N q & u N t u 0 q y A 5   , ",
"f l 8 3 2 $ w 0 i t M s M i y d u $ t 4 1 l f f k k 2 3 e e 3 d q M M M s e s s e e 4 4 k j g g h 3 4 t $ u m t i M s M t i 0 w $ u 4 8 k k ",
"j , k b T e e w d i p U.N y M u e * 8 A k j , f , l k A u e e s s t F.F.t s s e $ u C k k , g , k k Z 8 $ e u M y N U.p i M w e q Z l l > f ",
", z 6 =.Z w e e w d.D.D.S.B.u $ e q 9 -.v l f > z , Z =.u q e e s { S.C.{ s e q q u %.Z , z > g l k + 9 q e e y B.S.S.D.d.q e e w Z =.6 z , ",
"> g c #.9 R d * w d.F.D.D.D.u $ y ^ 8 Z C h , 5 k c #.v D D e $ s F.S.S.{ s q q D D v #.c k : > h C V m / y * u P S.S.F.d.w * 9 R 0 C Z l > ",
", , 1 7 A 3 e w d i p U.M t N u e y D l 2 , > f > 6 3 Z 8 t e s s t S.K.t s s q w 8 Z 3 5 > h > 8 3 v T u q u m t M U.p i m w e 3 A 9 1 j > ",
", : z A T q q 0 p t N a N p t M u * 8 A C v > > 5 l C A u * s 9 q s M M s q d s * u A A l : > : , C A 8 * y m t i M s M w i 0 q q T A z : > ",
", z c 3 w w 0 u t M i & t M i w 0 y e u k z g : z c 7 y $ 4 4 q M s $ $ s d q 4 s $ y 8 z h : g z k u e y 0 w u N w @ i N w i 0 q w 2 h z , ",
", k q * w 9 u w N u # b.t q 0 i t 9 u $ e 5 g 5 h ; * $ 4 9 q s s & s s * s d q 4 4 $ * ; h : g 7 $ $ u 0 w u m q t c.$ u M w u 9 w $ w f , ",
"> 5 $ w 9 u w 0 u * a R.B.q w 0 u w 9 ; $ ; , 1 , w $ 3 4 q 4 s $ w U.Y.w q 4 4 q 4 3 e w > 1 , ; * ; 9 w i 0 w * b.R.s * u 0 w ; 9 w $ 5 : ",
"  q w 7 u w 9 u & t I.f.I.a # q 0 u w 7 u * > . ; * 1 3 e 9 4 * $ c.F.F.c.$ * a 9 e 4 3 $ ; . > * ; 7 w u 0 q & s P.f.I.t & u 0 w u 7 w q z ",
"q q 5 ; w 9 u w a u S.i c.d y i w 9 u w 5 - q - e 3 3 q 4 2 q p t n.s s f.t a q 3 4 q 1 1 * = q y 7 w u 9 w u u s c.i F.u p t y 9 w ; 5 w w ",
"q : - w 9 u # F F X.a.N @.a.M _ e w 7 u w 5 = $ < 3 w 3 4 * p | N s.S.S.s.F o.p * 4 4 e 2 1 $ = 5 w ; 9 w e } M a.I.g.T.H.F F & u 8 w - 5 q ",
"> - w 9 u $ w 9 s P d.I.B.B.M s u $ q 9 ; q 5 > < e 3 2 $ q 4 a L f.F.G.d.L a 4 e e 3 3 q 1 : : w u 7 w q u 4 M J B.I.d.D.s 9 w $ u 7 w = > ",
"> ; 7 y q # u i.{ P H.c.H.` J u.S & q w 7 < 1 h < 3 3 q e $ 6.1.L X.C.S.@.L 1.4.$ q e 2 2 < h : < 1 w e & F u.J F.F.b.H.{ P i.y * e y 7 ; , ",
", z < $ q p s <.6.D.I.S.H.X.! i.0 p w $ w l f > z 6 $ q y 4 J i.P @.S.S.@.B.i.J 4 y q $ 7 z > g l w $ q 2 0 i.{ @.F.C.I.F.5.4.4 u q * < z , ",
"> : 3 w q v D F ! ` B.N c.` { H F T ; $ 2 5 : f 5 5 y $ 4 Y S { { F.d.g.{ { { S T 4 * - 5 5 j : 5 2 $ u T F H { H.d.g.B.` ` F D v q q 1 : > ",
"> w ; 5 w & 0 <.d g.g.U.S.f.d o.! q * 3 3 q : f ; w 5 ; & u <.J M g.K.K.d.0 F 6.; & ; 7 w ; f : q 1 3 $ e ~ o.9 d.B.U.d.d.M <.0 # w 1 ; w j ",
"= : w ; 7 q r J 5.w.g.n.g.D.a.Y s $ 2 4 q 1 < w 5 - w 8 y q 0 } y.n.n.n.d.y.| m $ u 9 w - 5 w < 1 q 4 3 * s Y y.F.f.n.d.@.5.J y q 9 p w 5 - ",
"e r 5 w u 9 w q u D.t.C.I.w.4 w $ 2 4 q 3 3 q q w 7 u w 0 y $ y M t.G.G.t.N y $ y 0 w ; : w q q 1 3 q 9 3 e w s @.I.B.Y.P u q w 9 ; w 7 - e ",
"1 * ; 8 w i 0 w # u D.d B.d & e s 9 q 3 3 $ = h $ q 7 ; w 9 u * q B.N N B.e $ u 0 w ; 7 q q h - * 3 3 e 3 s $ & d B.M F.y & w 9 ; w 7 u * 1 ",
"z < * u 9 w u 0 t q f.S.S.u $ s 9 e 4 3 q = f   5 q w 9 u w 0 i # s G.G.d $ u 0 w ; 9 w q 5   g w e 3 4 q 9 s $ y S.S.b.q t m u w 8 u $ ;   ",
"> : * $ u 9 w u M e y R.M # s 4 q 4 3 * & ; f < f w * q 8 u t M u $ K.K.$ u M w u 9 q * w k < j ; * $ 4 4 q 9 s * M R.t q M i w 7 u & * : > ",
"5 h 2 v w u 0 w i m q e e s s q 4 4 * 8 3 > j < h 1 8 2 q 0 u w N y $ $ u M w u 9 q 2 8 1 h < j > 3 8 e 3 4 q d s * $ w M i w 0 y w v 2 g : ",
"f x 5 8 ; # u 0 w i N t s d q d s e q v 1 x h > x l 3 7 * w 0 u t N i u N t u 0 w & 9 7 g   > h x 3 v q $ s s q M s y M u t 0 u * u 8 6   f ",
"g 5 k 7 8 q $ u m w a K.N q s s q e 3 8 v > , h 7 k 9 v y $ w 0 i t S.F.y i 0 t $ y v 7 k 5 h , 8 , 8 3 e e s 4 e N K.a t M u * q 8 9 l 5 k ",
", z 7 $.&.* e e u N N K.n.N s e e & 9 -.6 l f 5 z k l -.y * e w M N S.S.M d w e & y -.Z , z : g h 8 -.8 & e e s N n.K.N N u e e $ &.$.5 z , ",
", h c %.8 D 2 e $ d.@.C.H.H.t $ y S 9 &.#.l j > k l $.c 0 0 q * a I.D.S.r.a * q 9 v B $.l l : j Z C #.0 D t * t ` K.b.I.d.e e 2 D 9 %.z h , ",
": j 7 8 D S u $ s s s P.N a M w w 9 D v 7 k > > > k 7 v D 4 e u M p F.F.p d u e 4 D v 7 k > , : k 5 v D 9 t w M a N P.s s s * u v D 8 7 k : ",
"j , , Z A y & s d e M b.N t i M q * S C k > , f > v v *.3 & u m w i b.b.i t d u & 4 &.l , > h > , v A D & w n u t N N M q 4 s * w A Z , 6 g ",
": g #.8 u $ 4 s q s s * u N w u 0 w r 9 C h , : j z c 3 q u 0 w i N q q N i w 0 ; e 3 B x > : , h C 7 - w n u t N i & M M q s 4 $ 2 v #.k 5 ",
"k z ; e $ 4 4 q s s * a q u N w u 9 w $ w k h : z 7 w * u 0 w i M q i t w M p w 0 u $ q 1 z : h k t * q 9 ; t M y q a $ M s q 4 4 $ e ; z g ",
"5 6 $ e 3 9 q d s $ t T.M # u m w u 9 t * < > 1 > w # u 9 w u m w # K.K.# w 0 i t 9 ; $ w , < , < & t 9 u t m u & M T.t & s 9 q 4 4 e $ 5 5 ",
"  = e 3 4 q 4 4 q w F.I.U.p * y 0 t u 9 w q j   1 $ - 7 w u 0 w e N U.U.N $ w 9 u w 8 u $ 1   j q w 7 u w 0 u * p U.U.H.t $ s 4 q 3 3 $ = z ",
"< * 3 3 q 9 4 e q w S.i c.a e e y 0 w ; 7 w = > q r 7 w u 0 w q $ d.s M g.e q w 9 u w 7 = q > = q 5 ; w 0 u q $ a f.u S.t q q s 3 q 3 3 e < ",
"* 2 1 q 4 4 * m J B.Y.M K.w.m ! $ u 9 w - 5 q & - 5 w u 9 q u } 0 a.g.n.T.d 1.u q 9 ; w 5 = & w 5 ; w 7 u q ! m r.H.M Y.j.G 0 # 4 4 q 3 < * ",
"1 < e 3 3 e e 4 s U F.K.F.X.d 9 w $ y 8 w - 5 < 5 w ; 7 w * p s g.H.G.F.K.g.s p $ w 7 ; w 1 < 1 ; w 7 u $ w d s K.F.H.H.F.s d q e 3 3 w < 1 ",
"j w 3 2 e $ u <.J P B.S.S.B.P } 0 e e u 7 w 5 h ; ; 7 w $ q _ Y ` c.F.D.f.{ I ) q e w 7 - ; h 5 w 7 u e $ m } P D.D.F.j.P J ;.u e e < 3 r , ",
"> k 1 e q e u i.| L r.n.[ @.F p.0 q q $ - k > > > 6 w e q q _ u.M t.c.B.t.m u.:.q q e w 6 j , > k ; $ q $ 0 p.F @.H.g.r.j.o.i.u e q $ 1 j > "
};
