/* XPM */
static char *_66fe4055ae949cdd0cff4e6643f5562HabBvgQWuO7KMyVp[] = {
/* columns rows colors chars-per-pixel */
"70 70 252 2 ",
"   c None",
".  c #17191B",
"X  c #0C0D0D",
"o  c #1C291C",
"O  c #161A25",
"+  c #192126",
"@  c #1A2536",
"#  c #252729",
"$  c #29372D",
"%  c #35352B",
"&  c #262B36",
"*  c #2D3A33",
"=  c #2B3539",
"-  c #333534",
";  c #323A35",
":  c #343D3B",
">  c #373639",
",  c #322C2B",
"<  c #272C16",
"1  c #433834",
"2  c #51362C",
"3  c #6C3F3B",
"4  c #3C4637",
"5  c #374E27",
"6  c #534338",
"7  c #4C4B36",
"8  c #664737",
"9  c #6B4E38",
"0  c #5B773A",
"q  c #4A5D18",
"w  c #2B3643",
"e  c #333B44",
"r  c #373C45",
"t  c #202F44",
"y  c #1A2842",
"u  c #403E40",
"i  c #3B4344",
"p  c #394548",
"a  c #3C4556",
"s  c #3F5640",
"d  c #2F5167",
"f  c #434949",
"g  c #485546",
"h  c #484C56",
"j  c #4C5558",
"k  c #525659",
"l  c #5D534C",
"z  c #6A4B43",
"x  c #764D4A",
"c  c #655345",
"v  c #7B5856",
"b  c #75584A",
"n  c #55694C",
"m  c #586656",
"M  c #547043",
"N  c #697959",
"B  c #6F6859",
"V  c #4B5561",
"C  c #565B65",
"Z  c #53586C",
"A  c #5A6265",
"S  c #566978",
"D  c #64686C",
"F  c #776762",
"G  c #6B7663",
"H  c #676B77",
"J  c #6E737B",
"K  c #76797C",
"L  c #76736D",
"P  c #884A4D",
"I  c #865B54",
"U  c #915757",
"Y  c #876858",
"T  c #936A5B",
"R  c #856A65",
"E  c #976A65",
"W  c #8A7468",
"Q  c #997568",
"!  c #947B72",
"~  c #A36968",
"^  c #AB7977",
"/  c #B57A7B",
"(  c #A8766D",
")  c #688314",
"_  c #6F8C55",
"`  c #7D8678",
"'  c #798B63",
"]  c #8FAD37",
"[  c #D8F20C",
"{  c #D9F423",
"}  c #E0F732",
"|  c #9C867A",
" . c #8C9676",
".. c #8A896C",
"X. c #A98679",
"o. c #B6867B",
"O. c #B89A78",
"+. c #A6896B",
"@. c #93A570",
"#. c #9DAF4B",
"$. c #C1A27C",
"%. c #B9D274",
"&. c #B0CB5E",
"*. c #D9F350",
"=. c #DDF46B",
"-. c #DAEA77",
";. c #E3F97A",
":. c #E5FB65",
">. c #CFE35E",
",. c #6D7285",
"<. c #767A84",
"1. c #6B6D85",
"2. c #9A7E86",
"3. c #3881A8",
"4. c #7C8187",
"5. c #788091",
"6. c #858788",
"7. c #868A95",
"8. c #8D9199",
"9. c #93979B",
"0. c #979189",
"q. c #AA8A85",
"w. c #B88886",
"e. c #A9938A",
"r. c #B99587",
"t. c #BC9993",
"y. c #A89898",
"u. c #9BA688",
"i. c #ACB787",
"p. c #B9A198",
"a. c #A9AE8A",
"s. c #969AA6",
"d. c #949BAD",
"f. c #99A5AB",
"g. c #A5A8AB",
"h. c #B6BBA7",
"j. c #A7ACB5",
"k. c #B6B7B9",
"l. c #B1B1A9",
"z. c #C38989",
"x. c #C5978B",
"c. c #C88C93",
"v. c #C39C94",
"b. c #C89897",
"n. c #D1959C",
"m. c #D3999B",
"M. c #D28D89",
"N. c #CAA39D",
"B. c #C4A399",
"V. c #C9A290",
"C. c #D09DA1",
"Z. c #CCA8A4",
"A. c #D3A5A7",
"S. c #CDB3B2",
"D. c #E0B3B2",
"F. c #B9C78A",
"G. c #B9C699",
"H. c #B0D28F",
"J. c #BCC8A8",
"K. c #BDC1B2",
"L. c #C5D292",
"P. c #D8EA9A",
"I. c #E7F98B",
"U. c #EAFA94",
"Y. c #EBFB9C",
"T. c #E7FA9A",
"R. c #CBD6A6",
"E. c #C4C8B9",
"W. c #C6D4BC",
"Q. c #D5DCB6",
"!. c #CDD0B1",
"~. c #D6E6B3",
"^. c #ECFBA4",
"/. c #ECFCAC",
"(. c #E7F8A7",
"). c #F2FDAB",
"_. c #E2ECB9",
"`. c #ECFCB4",
"'. c #ECFCBB",
"]. c #E8F7B7",
"[. c #F1FDB5",
"{. c #F1FDBC",
"}. c #FBFEB8",
"|. c #E0EAA4",
" X c #91B6CD",
".X c #B8BDC8",
"XX c #ADB4C2",
"oX c #E8BEC3",
"OX c #BFC1C9",
"+X c #B2CED2",
"@X c #B3D4EA",
"#X c #BDD6EC",
"$X c #BAD8E8",
"%X c #B0D1E7",
"&X c #A7D0D8",
"*X c #C9C9C7",
"=X c #D5CBC5",
"-X c #CCD5C8",
";X c #D3D6CB",
":X c #C7CBD4",
">X c #CBD4D9",
",X c #D4D4D2",
"<X c #DADCD5",
"1X c #DCDCDB",
"2X c #D4D7D7",
"3X c #E1DEDA",
"4X c #D7EDC4",
"5X c #C4E1DA",
"6X c #D7E6DA",
"7X c #D7EDCD",
"8X c #EEFCC3",
"9X c #EEFCC9",
"0X c #E6F5C7",
"qX c #F3FDC3",
"wX c #FBFFC4",
"eX c #F4FECB",
"rX c #FBFECC",
"tX c #F0F7C5",
"yX c #E1E2DE",
"uX c #E5EDD6",
"iX c #F5FED1",
"pX c #FCFFD3",
"aX c #F8FCDB",
"sX c #E7EFCD",
"dX c #C3DAEB",
"fX c #CCDDEC",
"gX c #C7D9E5",
"hX c #DCDDE2",
"jX c #D2DBE4",
"kX c #C3DBF1",
"lX c #CCE0EB",
"zX c #DBE4ED",
"xX c #D6E3E9",
"cX c #D3E3F1",
"vX c #DBE6F1",
"bX c #CBE3F3",
"nX c #E3E3E3",
"mX c #E5E6E9",
"MX c #EBEBEC",
"NX c #E5E9E9",
"BX c #FAF9E7",
"VX c #EBEEF4",
"CX c #E3EAF4",
"ZX c #EEF2F7",
"AX c #F3F4F5",
"SX c #F9F6F4",
"DX c #F3F5FB",
"FX c #F6F8FD",
"GX c #FCFDFE",
"HX c #FAFAF5",
"JX c #EFF1ED",
"KX c #E0DAE0",
/* pixels */
"                                                                      SXHXSXBX                                                              ",
"                                                            HXGXHXSXSXAXAXAXAXAXSXSXDXSXSX                                                  ",
"                                                    HXSXVXMXMXJXMXMXmXmXNXmXNXmXMXVXVXAXAXAXSX                                              ",
"                                                SXSXnXmX<X1X3X3X1X1XhXKXnXmXmXmXnXKXKXKXnXmXVXAX                                            ",
"                                              JXMX3X=XyX3XyXyX3XnXnXnXMXnXKXnXKX1X1X1X1X1XnXnXNXJX                                          ",
"                                            JXnX,X3XyXyXyXuXNXmXMXMXMXmXnXnXmXmXVXMXMXmXmXnXKXyX3XJX                                        ",
"                                          MXhX<X3X<XyXyXyXyXNXNXMXMXMXNXmXmXVXAXAXSXAXAXMXnX1X1X1X3X                                        ",
"                                        nXyX;X4X;X;X;X;X*X=X;X,XnXJXVXDXmXCXAXAXAXJXmXmXnXmXnX<X<X,X                                        ",
"                                        6X;XW.W.J.J.!.h.k.E.,XKX,X2XKXKXXXd.jXDXFXAXMX,X*X*X<X<X<X,X                                        ",
"                                      JX6X;X-XW.;X-XE.E.=XS.l.<.k.a j.:Xg.OXj.KX8.>XOXKX1XE.E.*X<X,X                                        ",
"                                      nX2X;X;X;X;XE.W.=X0.! K J s.2.7.d.g.g.9.d.H 7.1.7.k.=Xh.k.-X,X                                        ",
"                                      ;X2X<X;XW.J.K.9.4.,.d.H XXh :X1.<.XXd..Xh :XD s.H <.g.E.h.E.                                          ",
"                                      *X,X,XJ.J.E.6.K 4.8.2.8.7.f.,.s.8.<.:XZ OX,.j.7.7.H y.E.E.                                            ",
"                                        2X-XG.J.f.H 8.7.s.J d.h 7.Z Z H Z 1.Z 1.H 7.H s.4.2.*X                                              ",
"                                          E.G.J.<.<.6.,.H Z a a w : & & w @ & @ w r V 1.d.2.                                                ",
"                                            G.J.8.7.f.h = + + . . . . . # & , # . . O O w ,.                                                ",
"                                                8.1.h X X o # # , w > u V h V l f u f k : .                                                 ",
"                                                - . > D 7 1 , $ , - u k f u h C k k l D :Xj.L                                               ",
"                                                X . l L C h i r r h h C V h h h Z V Z <.j.:X>X                                              ",
"                                                1 l F q.F l 7 > - > > 1 1 1 1 > 1 , , u D J                                                 ",
"                                                F F W v.o.T 9 9 8 2 8 8 x 8 x 8 2 8 c b X.0.!                                               ",
"                                                R F | v.X.( +.Y 8 2 2 2 x P b 2 2 2 c Q q.y.                                                ",
"                                                q.W X.V.O.T I I I x 3 3 x U U x z v Y v X.p.                                                ",
"                                                o.e.o.x.x.z.o.o.~ T U I ~ ~ ~ E E ( / w.v.Z.                                                ",
"                                                M.v.v.x.x.m.A.z.^ ( / z.2.M.c.c.z./ / n.N.N.                                                ",
"                                                M.o.Z.x.x.b.m.m.n.c.c.z.n.A.A.A.n.n.n.A.N.N.                                                ",
"                                                M./ A.v.x.x.n.m.n.c./ 2.c.m.C.n.2.n.n.A.A.Z.                                                ",
"                                                m.x.N.t.v.m.c.c.n.z./ ~ 3 ~ 2.~ / / c.c.N.S.                                                ",
"                                                D.D.A.v.v.b.c.z.z./ w.^ ~ T U ! X.^ z.b.N.S.                                                ",
"                                                oXm.x.N.N.c.c.z./ ^ Q E E Q W ( Q o.o.x.B.Z.                                                ",
"                                                  z.M.b.N.x.w.z.o.Q T T I U I I Y X.x.b.v.S.                                                ",
"                                                    v.b.N.x.x.b.w.R P P P P P P x Q v.N.N.S.                                                ",
"                                                    V.V.x.x.$.x.w.Q ^ w.^ ( ^ z.t.2.w.V.N.Z.                                                ",
"                                                    N.V.V.M.o.o.X.q.w.X.2.w.^ w.b.q.e.r.B.                                                  ",
"                                                    Z.V.x.x.O.o.W W ! r.t.C.C.C.b.e.e.r.B.                                                  ",
"                                                    S.V.t.O.+.+.v v X.p.C.C.Z.Z.p.0.e.r.p.                                                  ",
"                                                  DX=Xr.V.O.O.+.9 c W e.t.p.p.y.y.| W t.p.                                                  ",
"                                                  HXFX!.O.x.O.+.9 % l O.| | e.| L l | p.,X                                                  ",
"                                                VXDXFXFX!.O.O.O...9 7 B B b B ..B W t.S.AXAXDX                                              ",
"                                              OXvXmXFXAXAXW.a.O.+.+.Y B W Y W q.e.t.k.VXDXDXDXDXDXDX                                        ",
"                                          BX` i >XGXVXDXZXDX1XS.a.o.+.+.! +.^ ^ e.S.ZXDXDXDXFXFXDXDXAXk.r # C           ^.Y.                ",
"                            Q.rX}.{.tX].9XeXwXG r *XGXJXDXZXZXCX1XE.p.X.R 2 f y.hXDXDXDXDXZXDXFXHXDXDXDXK & m 0XuX..a.wXU.[.].              ",
"                        h e k m ' @.|.U.{.8XqXwX .* g.FXZXDXDXDXDXVXZX>Xf + # k jXFXDXDXDXVXFXDXFXFXDXZXVXD N pX9XaXP.>.>.-.}.tX            ",
"                    l.h t K VXC . F.:.I.8X8X{.'.wXa.* <.ZXGXZXDXDXDXCXf + , & # f jXFXDXFXVXDXDXFXFXFXFXJXh a.pX9X9XtX=.>.-.I.[.pX          ",
"              w 4.k.,XD O S f.j 5 >.=.^./.`.'.'.].wXR.7 h >XGXSXZXFX>Xk O & r r <.d.jXGXDXVXDXFXFXFXAXGXj.f tXeXeXtXeXeX|.P.Y.L.`           ",
"            e w g.*X*Xg.h = $ @ _ I.'.8X8X{.{.`.'.'.wX].G = g.GXGXCXzXDX9.r & h vXDXhXVXFXVXDXFXFXFXFXAXj  .pXtXeXeXiX9XtXtXI.&.= 1.        ",
"        h.h A p 9.:X:X-XOXi # $ H./.].8XqXeXqX'.[.[.'.{.wXa.$ J AXFXCXjXGXD # u jXGXZXjXAXVXDXFXFXDXGXk.p 4XeXeXeXeXeX9X9XeXtX&.5 8.g.      ",
"      sX6.V f.8.@ V s.H w & d f.qX8XqX8X{.qXqXqX{.`.).[.{.rXQ.g h >XGXDX8.# r & 8.GXZXCXVXDXDXFXFXAXGXH ..pXeXiXiXeXiX].9XeX{.).n e j A *X  ",
"    BXu.s.K J k e & @ w 1. X@X$XqXqXeXeXqXqXqXqXqXqX{.[.{.'.eXqXG = k.hX- - > > f zXFXFXDXDXDXFXFXGX2Xr Q.eXiXiXiXeXeXqXrXiX8XpXl.+ a C +Xk.",
"  h.4.e A 6.k & 5 _ 3. XbXvXbX$X0X{.eXeXqXqXeXqXqXqXqX{.[.[.{.qXrXu.= j - - > r = g.GXZXDXZXFXFXDXGX<.G aXeXeXeXiXiXeXR.Q._.eXeXaX` O 8.>X,X",
"BX6.w p & <.7.5 %.'.&X$XlXdXbXbX6X}.'.qXeXeXeXqX8XqXqXqX{.`.}.{.{.pXR.g = ; > : > J GXFXDXDXFXGXGX2Xr !.pXeXiXeXeXeXqXN h m !.Q.0XVXA O H k.",
"aX|.7 = $ f $ i.eX'.$XkXlXlXcXbXgXqX{.{.qXeXqXeXqXeXeXqXqXqX{.[.{.{.eX_.g = : > > k ZXFXDXDXGX2XnXJ G pX9XeXiXeXeXeXrX%.g j <.g J.CXCX_ < p ",
"9X).%.* w o @.pX'.[.7X@XCXVXVXbX$X'.qXeX{.[.).Y.Y./.qXeXeXqXqX[.[.{.'.qX_.n = r : p jXGXDXDXGXj.Z f R.eX'.eXeXeX9X9XiX(.m 4 j ,.4.-XCXl.) q ",
"{.'.wX#.q L.pX'.8X'.0X@XcXcXcXxX$X0XwX/.I.(.[.Y.U.`.qXqXeXeXeXqX{.{.[.].eX_.n : 4 : :XGXDXDXGX.Xp G eX'.9X9X9XqX8X9X9X(.M j * @  .7XZXCX] ) ",
"{./.qX).I.qXeX{.{.'.'.$XbXlXlXlX#X6X).U.).{.qXeXiXeXqXqXeXeXeXeXqX{.{.`.'.8X~.7 p = g.GXDXZXGX.X= J.eX].9XeX9X9X8X8X9XeX' p 4.D u.4XcXFX0X] ",
"qX[.'.{.9X9X{././.`./.5XcXxXvXCXfXgX{.tXtX{.{.{.qXeXeXeXeXeXeXeXeXqXqX].`.`.rXR.i % 9.GXZXDXGX8.g tX'.qX9XeX9XqXeXqX9XiX_.0 $ m 4.~.xXCXCXJ.",
"{.`.'.qXqX{./.Y././.^.4X@XzXCXzXbXlX9X9X9XqXqXqX{.qXeXeXeXeXeXeXeXeXqX8X`./.].eXL.# 6.GXVXAXFXA ..rX`.eXeXqXeXeXeXeXeXeX8X].@.0 M ~.6XzXxXZX",
"U./.eXqX{.[.^.^.`././.(.&XbXcXdXbX$X9XiXeXeXeXeXqXqXwXeXeXeXeXeXeXeXqX9X9X'./.`.pX .r xXGXGXxXp F.wX'.eXeXeXeXeXeXeXrXeXeXeX9X].].`.4XvXjXxX",
"U.{.eX8X[.)./.[.{.{.'.{.$X%X#XgXcX@XsXrXeXeXeXeXeXeXeXeXeXrXeXeXeXeXeX9X9X9X8X'.].qXn A 2X>Xs.4 R.}.8XqXeXeXeXeXeXeXeXeXqX9X8X].].].0XJXMXgX",
"U.8XqX[.^.[.qXeXiXeXeXaX6XgXjXbXvX@XuXeXeXeXeXeXeXeXwXeXeXeXrXrXeXeXeXeX9X9X9X9X8XqXQ.4 i k = 7 _.qXqXqXeXeXiXeXeXiXiXeXeX8X8X'.'.'.9XJXMXlX",
"I.`.'.[.[.{.eX{.'.qX'.`.6X$XfX$XcX#XxXwXeXrXeXeXeXeXeXeXeXeXqXeXqXeXqX9X9X9X8X9X9X'.pX .$ k 4 m [.{.qXeXeXeXqXqXeXeXeXeX8X8X'.'.'.8X8XNXZXHX",
"U.`.'.{.qXeXqX/.U.Y.^.;.5X$XcXgXfX$X6XqXtXqXwXqXeXwXqXeXeXwXqXqXqXqXqX'.'.'.'.'.'.'.eXG.; g $ m }.8XqXqXqXqXqXqXqX{.qX{.'.qXqX'.'.'.`.7XCXZX",
"T.`.qXqXeX{./.U.Y.U.I.=.4X#XfXzXjX%X>XqXqX{.{.qXqXqXqX{.{.qX{.qXqXqX'.'.'.8X'.'.{.'.{.~.4 p ; m qX{.{.{.{.qX{.{.{.{.{.`.'.8XqX9X8X'.`.0XfXgX",
"T.(.'.{.[.^.I.I.^.U.(.T.~.&XjX1XxX#X%X{.{.qXqXqXqXqXqX}.{.{.{.{.[.{.`.'.'.'.'.'.'.'.'.].g h f g '.qXqXqXqXqX{.qXqXqXpXeX'.'.'.'.8X'.'.0XzX+X",
"/./.`./.Y.I.U./.U.*.^.(.T. X$XgX#X#X%X8X{.qX{.{.{.`.[.[.[.[.{.{.'.`.'.'.`.'.'.`.'.'.'.9XN 4 h * ~.eXqXqX{.qX{.qX{.tXh.Q.9XpXpXrXqX8X'.].vXgX",
"`./.`./.^.^.'.^.} *.(.(.T.+X%X%X%XfX@X].[.[.[.[.`.[.[.[.`.[.{.{.{.'.`.`.`.`.].`.'.'.'.qX` 4 j 5 R.wXtXqXqX{.qX{.{./.g p k <.6.J.sXaXiX8XJXJX",
"`.(.(./.{.qXI.} [ ;.].T.T.5X%XdX#X#X@X0X).`.`.[.[.)././.[.{.{.{.'.'.`.`.`.`.`.'.'.'.].qXa.* j ; G.wXtX{.{.qX{.{.'.[.N a C s.8.K A ` h._.iXCX",
"`.(.T.^.^.;.[ [ *.(.].T./.5X@XlXxXfX%X4X[.[.[.[./.)./.[.{.[.{.{.'.`.].`.`.`.`.`.`.'.'.wXF.= l - %.tX'.'.{.}.{.{.{.qXG y S s.9.s.j.<.w p a.HX",
"/.T.T.I.:.{ [ { I.]./.(.'.+XgXjXjXfX&X-X).`.[./.^.^.[.[.[.{.{.[.`.`.`.`.`.].`.`.'.'.`.8XL.; h - @.wX{.[.{.{.{.{.[.{.F.' n s p e ,.f.4.t u.7X",
"T.I.T.;.*.[ [ *./.'.(.].;.H. X+X>X>XgX+X)./././././.[.{.[.qXqX[.`.`.`.`.`.`.`.'.`.'.'.'.R.4 s %  .wX'.{.[.{.{.{.{.(.).}.(.P.F.@.g a d t @.4X"
};
