/* XPM */
static char *ca117d2339dc4130e254904b45f9415c09O8WMETYungatqA[] = {
/* columns rows colors chars-per-pixel */
"70 70 246 2 ",
"   c None",
".  c #2A1307",
"X  c #34190A",
"o  c #251004",
"O  c #392516",
"+  c #352213",
"@  c #382E27",
"#  c #4C230A",
"$  c #57250A",
"%  c #432C1A",
"&  c #552915",
"*  c #573412",
"=  c #68380B",
"-  c #6B2E0B",
";  c #4C3628",
":  c #4C392D",
">  c #521D10",
",  c #784C16",
"<  c #77450B",
"1  c #594738",
"2  c #745432",
"3  c #564D44",
"4  c #5A534E",
"5  c #665746",
"6  c #665B51",
"7  c #745D46",
"8  c #786A58",
"9  c #736453",
"0  c #776D64",
"q  c #7C7269",
"w  c #973D01",
"e  c #803A09",
"r  c #974606",
"t  c #855412",
"y  c #8C520C",
"u  c #A44806",
"i  c #AA570A",
"p  c #B75A0B",
"a  c #AB5C11",
"s  c #B4540B",
"d  c #9A6815",
"f  c #926411",
"g  c #AC630A",
"h  c #B3620D",
"j  c #B86908",
"k  c #BA7609",
"l  c #AA6414",
"z  c #B76811",
"x  c #B77914",
"c  c #A97817",
"v  c #9B5F27",
"b  c #845629",
"n  c #9B6529",
"m  c #956C3E",
"M  c #A36C37",
"N  c #A47835",
"B  c #C15E0C",
"V  c #C05D10",
"C  c #C3640C",
"Z  c #C56B0D",
"A  c #CC6C0C",
"S  c #C76809",
"D  c #CE730D",
"F  c #C8790A",
"G  c #D2740C",
"H  c #D57A0C",
"J  c #DA7D0B",
"K  c #D47D03",
"L  c #C86911",
"P  c #CA7711",
"I  c #D37711",
"U  c #9D744A",
"Y  c #8A755A",
"T  c #907151",
"R  c #A57447",
"E  c #AA7C54",
"W  c #897968",
"Q  c #937D67",
"!  c #847973",
"~  c #BB8415",
"^  c #BD8205",
"/  c #B8892D",
"(  c #B99236",
")  c #BCA53A",
"_  c #CC850D",
"`  c #DB8402",
"'  c #D4840D",
"]  c #DC830B",
"[  c #D38B0C",
"{  c #DB8C0C",
"}  c #DA8804",
"|  c #DB940A",
" . c #D79408",
".. c #C78515",
"X. c #D68812",
"o. c #CB971B",
"O. c #D89814",
"+. c #C9910E",
"@. c #E38C05",
"#. c #E18609",
"$. c #E38B0A",
"%. c #E28607",
"&. c #E59303",
"*. c #E99604",
"=. c #E59C05",
"-. c #EB9B04",
";. c #E4930A",
":. c #E89408",
">. c #E49B0A",
",. c #EA9C09",
"<. c #E8990C",
"1. c #D9A516",
"2. c #DEA50B",
"3. c #E6A205",
"4. c #EBA404",
"5. c #E7A805",
"6. c #EBAB05",
"7. c #E5A20A",
"8. c #ECA309",
"9. c #ECAB0A",
"0. c #E3AC0C",
"q. c #F2A808",
"w. c #EDB205",
"e. c #EAB50B",
"r. c #F3BA05",
"t. c #F4B709",
"y. c #E5A614",
"u. c #EABB15",
"i. c #C69528",
"p. c #C99A33",
"a. c #D49A36",
"s. c #CD8E25",
"d. c #D8A626",
"f. c #DCB428",
"g. c #D6A732",
"h. c #CDA73C",
"j. c #E7B42A",
"k. c #F9C409",
"l. c #EEC61D",
"z. c #F0C633",
"x. c #FBE13A",
"c. c #B99747",
"v. c #AD8B4F",
"b. c #BEA052",
"n. c #99836C",
"m. c #8B817A",
"M. c #9D8A75",
"N. c #978878",
"B. c #A28D77",
"V. c #A6957C",
"C. c #B28C67",
"Z. c #AF9566",
"A. c #CA9D4C",
"S. c #D7B648",
"D. c #D1A850",
"F. c #E5BD48",
"G. c #D7BB78",
"H. c #CEB36A",
"J. c #E0BA69",
"K. c #ECCE4E",
"L. c #DDC46C",
"P. c #DCC673",
"I. c #EDCE6F",
"U. c #F8E469",
"Y. c #DFC34A",
"T. c #968C85",
"R. c #9C938B",
"E. c #9A938B",
"W. c #9C9793",
"Q. c #898789",
"!. c #AB9B8C",
"~. c #A79685",
"^. c #A49A94",
"/. c #A89E97",
"(. c #B29F93",
"). c #B8A889",
"_. c #ABA39C",
"`. c #ACA196",
"'. c #B2A296",
"]. c #B3A69B",
"[. c #B5A99D",
"{. c #BEB69F",
"}. c #ABA5A2",
"|. c #B3ABA3",
" X c #BAADA3",
".X c #B4ADAA",
"XX c #BCB3AC",
"oX c #B7B2AA",
"OX c #BDB9B5",
"+X c #BCB7B5",
"@X c #B3AEB4",
"#X c #D4BD82",
"$X c #CABB9B",
"%X c #C8B48A",
"&X c #C3B8AB",
"*X c #C3BAB4",
"=X c #C4BBB6",
"-X c #D5BFA1",
";X c #D6C38A",
":X c #D7C498",
">X c #EACC93",
",X c #C5C1BC",
"<X c #C9C3BD",
"1X c #CEC8BE",
"2X c #D5CBB9",
"3X c #D8CBAF",
"4X c #E2C9B5",
"5X c #CAC6C2",
"6X c #CCC9C4",
"7X c #CECCCB",
"8X c #C7C5C3",
"9X c #D1CCC6",
"0X c #D2CECB",
"qX c #D5D1CC",
"wX c #D9D4CC",
"eX c #D5D3D2",
"rX c #D9D6D4",
"tX c #DBD9D5",
"yX c #DDDCDA",
"uX c #D8D8D8",
"iX c #D1CFD0",
"pX c #E1DEDD",
"aX c #E0DCD7",
"sX c #E7D9CA",
"dX c #DFE0DA",
"fX c #E3E3DE",
"gX c #EBE4DA",
"hX c #DCDEE3",
"jX c #DFE1E3",
"kX c #E5E4E3",
"lX c #EAE6E5",
"zX c #EAE8E6",
"xX c #EDEAEA",
"cX c #EEEDEE",
"vX c #ECEBEA",
"bX c #E7E7E9",
"nX c #F1EDED",
"mX c #F2F1EE",
"MX c #ECEEF5",
"NX c #E7E9F1",
"BX c #F1EFF0",
"VX c #EDF0F5",
"CX c #F2F1F1",
"ZX c #F4F3F3",
"AX c #FDFDFD",
"SX c #F7F7F7",
/* pixels */
"                    yXuXiX7X                                                                                                                ",
"          kXbXbXkXfXhXyXuXuXeXeXeXiX7X7X                                                                                                    ",
"        vXvXvXvXvXvXkXkXjXkXkXkXpXpXaXrXtXiXuXpXhXiX7XuXpXiXeXeXyXpXjXhXuXeXuX7X8XOX+X                                                      ",
"    bXvXvXMXvXvXMXvXvXbXxXvXvXxXxXkXxXlXbXxXlXkXlXbXpXpXpXuXrX0X0X7X8X8XiX8X.X|.}./.}.+XuX                                                  ",
"  bXvXvXBXMXMXvXBXBXCXvXMXBXMXvXzXlXxXMXBXZXBXzXlXzXlXlXnXlXrXrXeX0X8X7X5X8XOX.X^._./.^._.XX                                                ",
"  bXbXbXbXvXvXvXvXvXBXCXBXZXZXZXMXBXBXBXBXBXxXlXlXbXlXlXkXpXpXrX0X7X0X0X0X=X<X.X^..X.X^.R.W.,X                                              ",
"  kXkXbXkXbXmXnXvXMXMXnXSXSXSXZXSXBXBXxXcXxXxXnXxXlXkXpXpXaXpXrXiXaXyXeX0X=X*XXX}.]./.N.m._.OX                                              ",
"  kXvXvXvXcXvXxXxXxXxXxXvXxXbXxXBXBXZXZXZXBXnXBXnXxXlXlXkXlXkXpXpXiXpXpX0X5X8XXX X!.R.N.^.~.!                                               ",
"  kXxXzXnXnXlXlXzXzXlXlXxXnXnXmXnXxXZXSXSXCXnXnXxXxXlXlXlXlXlXlXlX9XrXpXrX9X*X*X/.^.!.Q V.B.8 m.                                            ",
"  bXxXkXlXlXlXnXmXmXZXZXZXAXAXAXAXSXnXnXCXZXBXnXlXlXxXlXlXlXlXpXpXkXaXrXeX5X*X].!.Q 8 T V.[.W                                               ",
"  bXxXlXxXlXlXZXZXZXmXnXZXAXAXAXAXSXnXnXcXnXmXnXnXxXlXxXlXpXlXpXpXpXrXiX0X<X].~.W 5 8 Y !.0X5X                                              ",
"  bXnXgXxXlXnXmXnXmXZXZXZXAXAXAXAXSXnXnXnXlXnXnXnXxXlXlXlXpXpXrXpXrXrX7X=X].Q T 9 Y Y W '.eXxX                                              ",
"  kXbXlXxXnXlXmXnXnXmXnXZXAXAXAXAXSXxXnXnXnXlXlXlXxXlXlXpXpXpXrXrXeX=X(.B.Q Q Q Q Q Q W (.qXkX                                              ",
"  kXzXfXlXnXxXnXnXnXnXnXCXAXAXAXAXSXxXxXxXxXxXlXlXpXlXlXpX0X<X&X&X].~.~.~.~.~.Q Q Q W W ].rXzX                                              ",
"  kXlXkXkXlXlXnXnXnXnXnXmXAXAXAXAXZXlXlXlXlXlXlXlXpXrX5X<X*X]./.(.&X&X&X&X(.B.Q Q Q Q ~.].9XlXAX                5XuXyXfXlXuXW.              ",
"  pXlXpXkXlXgXnXxXxXcXnXvXAXAXAXAXSXlXlXlXlXpXlXpXpXaX0X=X*X*X+X=X=X*X&X(.(.~.B.Q Q Q (.(.*X<X).%X          dX5XdXcXcXcXmXSX6X              ",
"  yXkXpXpXlXkXxXxXxXxXxXnXSXAXAXAXSXlXkXkXpXpXpXaXrXrXwX0X5X+X=X*X*X*X X(.!.~.B.n.n.M.V.!. XW.n.sXmXSXAXAXmXmXZXmXmXcXvXbXvXZX{.            ",
"  hXpXpXpXkXpXlXlXlXlXlXxXSXAXAXAXZXkXpXpXpXaXaXrXrX0X9X5X<X*X*X*X.X.X].(.~.~.B.n.Q B.B.]. XE.zXSXAXAXAXAXSXSXZXZXmXcXvXvXkXmXmX!.          ",
"  kXyXtXaXaXaXkXlXpXlXlXlXSXAXAXAXZXpXpXaXrXrXwXqX0X7X<X=X=X&X*X X].].(.!.~.B.Q Q Q n.Z.V.[.`.{.AXAXAXAXAXSXSXmXcXcXcXvXvXkXfXZXvXqX        ",
"  kXuXeXeXrXrXpXpXpXpXpXpXZXSXAXAXnXaXwXwXwXwX9X5X5X<X=X*X&X&X X X].(.!.~.Q B.Q T Q n.B.n.V.V.Y 2X2XfXSXSX        8XtXkXzXvXzXkXZXSX        ",
"  tX7XOX=X=X5XrXuXuXaXaXaXZXSXAXAXBXaXwX0XqX9X5X<X=X*X&X].&X[.[.].!.~.B.B.Q Q Y T T Y Y Q (.~.8 Y                       dXkXvXkXbXZXZX      ",
"  -Xv.n v.C.v m R T U U R -XsXgXsX4XC.C.C.E C.E E E R E R R R M R M M v v v v v n v M n M b.V.&X                          fXfXkXkXmXSX      ",
"  :Xs.i l l r r w r w w w A.G.>X>XH.u u u u u u w w w u s s s s B B V B A A B S D I I S X.O.D.                              dXkXkXvXSXZX    ",
"  :Xi.x i l a i a r a a u A.J.G.>XJ.p V s s u s s s s V V B V B V A A A I A I D L D I D { O.F.                                dXkXfXmXZX    ",
"  :Xi.h l a h h h i u i u A.I.>X>XJ.B B p s s z p p V B B V A A L B B A A I J J P I P I X.+.S.                                dXjXfXvXZXvX  ",
"  ;Xo.l l z h h h h i a p A.J.>X>XD.B S p L L V L V C B L V A B A L A J I G I J L P X...X.O.g.                                  dXfXbXZXZX  ",
"  ;Xi.x l h z h z l i a s a.F.J.I.a.B A S S A A A C A C G S B B L A A I I I I I I P .. .O.O.f.                                  dXfXfXmXZX  ",
"  #Xi.k h z z z z z h a p P F.I.I.a.B A V I A I L C G G J A A S G A G G I X.J I P ' { X.1.0.g.                                  dXfXfXmXZX  ",
"  #Xo.z h k j z i p j z h L Y.I.I.a.p S S S G H G A J A S G G J I A ] ] ] X.] I { X.' X.O.0.f.                                  dXdXfXcXZXcX",
"  #Xi.k z P _ z P j Z z Z P j.>XI.s.S A D S A G J J G J J G G G A H J H #.' ] X.] ' { X.X.O.f.                                  dXfXfXcXZXmX",
"  ;Xo._ ..F ..P P j Z P Z F d.K.I.a.S S C C S A A J G G J G S G I J J I ' #.{ I { ' X.' O.1.f.                                  dXfXdXcXZXmX",
"  #Xo. ._ F P _ P F P H P Z O.I.U.d.A A L Z C A A J J J G G G A G J J ] ' { { { { { O.| | 2.f.                                  dXfXfXcXZXkX",
"  #Xo.[ ' [ ' ..{ ' ' ' { ' [ U.U.a.A I A A A A G J J J J J %.J G J ] { $.<.$.| | >.7.[ | y.f.                                  dXkXfXmXmX  ",
"  G.d.+._ [ [ [ | >.{ ;.;.&.{ z.U.d.J #.J G J J A J J J J J J J J J ;.$.,.;.;.{ >.>.7.O.O.0.f.                                  dXfXfXmXZX  ",
"  G.1.[ [  .| >.7.3.-.=.,.;.%.j.U.j.$.$.J J J J G J %.%.J $.%.J %.$.;.,.8.,.,.,.8.;.>.0.2.0.f.                                  dXfXfXZXZX  ",
"  G.o. .[ [ >.7.7.8.4.,.-.-.,.y.U.j.J $.#.$.J J J J %.%.%.:.%.J %.@.*.;.8.q.8.,.>.,.9.9.y.0.f.                                  dXfXkXZXZX  ",
"  P.1. . .| =.4.4.4.4.8.-.-.-.3.K.j.*.$.J $.J J $.$.$.J @.%.%.:.:.#.:.:.8.<.,.q.4.4.9.9.0.e.f.                                  dXfXkXZXmX  ",
"  G.1. . .| =.7.4.3.8.-.8.-.,.-.l.l.:.-.:.:.:.:.#.$.$.:.%.%.:.%.,.,.,.*.8.t.t.9.9.3.5.5.e.e.f.                                uXfXfXvXZXvX  ",
"  H.d.+. .| >.4.4.3.4.8.4.4.-.-.q.l.@.:.-.:.:.:.:.J J :.@.:.:.$.q.q.q.q.q.t.t.k.r.t.e.r.e.l.f.                                yXfXfXcXZX    ",
"  H.l.e.2.3.7.7.4.4.=.=.*.-.,.;.<.t.,.:.%.:.:.:.:.:.:.:.@.:.:.*.q.q.-.8.8.>.;.{ _ F _ x k x /                               kXyXkXfXmXZX    ",
"  ;XY.0.e.e.w.5.6.5.6.4.*.8.;.;.<.q.,.-.*.:.:.@.$.*.:.:.*.*.q.q.:.:.:.:.&.&.;.;.| [ [ ..O.~ n                             dXuXdXfXkXSXvX    ",
"  '.:XJ.1.k.k.k.w.5.5.6.4.4.=.-.,.<.*.-.-.-.*.-.&.*.*.%.@.@.*.-.:.q.q.q.;.;.=.8.>.y.k.k.e.t 2                             yXuXfXfXvXZXkX    ",
"    %XH.D.1.f ~ k.r.q.4.=.=.=.-.,.-.*.*.&.@.:.:.*.*.*.&.@.:.*.-.q.t.q.t.y.O.6.} | 9.0.+.o.S.T                             tXtXfXfXmXZX      ",
"    %XJ.c.p.= # ~ k.w.6.=.>.;.;.;.;.&.,.*.*.-.*.*.*.*.*.-.-.-.:.-.-.=.>.9.r.r.| q...& k l.S.1                             rXdXkXkXZXmX      ",
"    ).L.) p.y $ c k.w.6.4.8.-.;.;.@.@.-.-.*.-.*.*.*.=.*.-.*.&.&.*.-.q.4.6.r.w.&.t.f # _ l.A.1                           tXiXfXfXvXZXvX      ",
"    ).L.c.a.y $ d k.w.6.4.8.-.&.&.@.` -.-.-.*.*.*.*.*.-.-.&.&.=.*.-.4.4.6.r.w. .t.t > ..u.) ;                           6XtXzXfXCXZX        ",
"    V.L.c.p.y $ d t.6.9.4.4.;.&.&.@.` *.&.&.&.*.&.&.*.*.*.-.*.*.-.-.8.4.6.r.w. .q.t X z 1.b.7                         7X9XzXdXzXZXvX        ",
"    V.L.( i.< # f k.w.4.3.=.;.&.&.` ` -.*.&.&.&.*.*.*.;.*.*.&.&.*.-.4.4.6.r.w.@.q.f X a ~ Z.v.2                     /.|.fXfXfXmXCX          ",
"    V.L.v./ < # , k.6.6.3.=.;.&.&.` ` -.*.&.&.@.&.&.-.*.*.&.&.&.-.-.4.4.6.r.6.O.y.c & - / 5 * b 7 v.            }.E.m.fXkXdXvXZXbX          ",
"    B.P.( / = * , k.5.5.3.=.&.@.@.` ` *.&.&.&.&.&.&.*.&.=.*.&.&.*.-.4.6.6.w.w.O.y.f . $ N 1 ! mXsX,X&XOX8XOXoX}.}.8XvXbXfXfXZXkX            ",
"    M.L.v./ = & , k.0.6.5.3.*.&.@.` K *.*.&.&.&.*.&.&.*.*.*.&.&.&.-.4.4.6.w.w. .q.t . # / 1 T.AXVXZXvXkXkXkXfXfXbXcXkXkXfXVXmX;X            ",
"    N.P.v.i.* & < k.5.5.3.=.*.} ` ` ` &.*.&.&.&.&.&.&.&.*.*.&.&.*.4.4.4.6.w.w. .-.t X = h.1 ! AXkXvXvXmXvXvXvXvXbXkXkXfXdXSX3X              ",
"    M.L.c.) = # * k.5.5.3.=.=.| } K ` *.&.&.*.&.&.&.&.&.*.*.&.&.*.-.4.4.6.w.w.} q.d X u Y.1 E.AXVXmXSXZXcXvXzXbXkXfXfXfXbXZX2X              ",
"    M.L.( p.* # # e.w.5.5.*.&.| @.K ` *.&.| *.&.&.&.&.&.*.*.&.&.*.-.3.6.6.w.6.| 9.z # ^ L.4 1 sXdXvX                eXfXmXmX                ",
"    M.P.( g.= = < 0.w.5.5.=.&.&.@.K } *.&.&.*.*.&.&.&.&.&.&.&.&.&.-.4.6.6.r.w.{ q.k - 1.h.H.v.T                                             ",
"    B.P.h.g.< = , 0.w.5.3.3.&.&.} K } *.&.@.*.&.&.&.&.&.&.&.&.&.*.-.3.6.t.w.w.| 6...- +.K.b.).                                              ",
"    ~.;XS.S.d b , 0.w.5.5.3. . .} K } -.*.&.*.&.*.&.*.*.&.&.*.=.*.4.6.w.r.r.r.| 6.O.& +.x.H.Y                                               ",
"    |.H.b.A.d , b 2.5. .} _ F K F j ` -.&.` } &.@.@.` } ` } $.H ` } | 0.9.t.u.k ' ..N c z.!.!                                               ",
"    oX`.H.A.t , n x j g g i i u i i i p i i p j p i i i i i h r r i z Z F ` _ l c c v./ T OX.X                                              ",
"    `.@X6X$XM.~.T v.Z.A./ ~ c ~ c j k ^ k g k k k j k k k F ~ s.x s.~ p.D.H.b.b.H.:XyXoX0 +X,X                                              ",
"    /./.[.uXuXVXbXhXuXiX1X<X1X3X$X$X$X:X:XP.:X:X;X:X:X:X3X$X3X2X2X1X1XyXhXNXkXhXNXbXbXuX4 4 W.                                              ",
"    _.=XOX7X7XvXjXjXdXdXfXkXhXyXhXhXBXSXVXNXVXVXMXMXVXVXVXVXVXVXvXbXvXcXxXxXyXhXkXkXSXW.@ 4 @                                               ",
"    _.oX7XdXiXvXVXvXkXkXkXfXjXdXfXfXvXZXVXvXmXvXvXmXVXVXmXmXmXZXVXvXcXZXVXZXuXuXAXbXuXW.Q.Q.6                                               ",
"    q .X_.E.OXeX}.,XtX6XqXfXfXfXfXfXcXAXAXSXSXZXmXmXvXbXvXgXgXgXtXqXwX9XwXmXgX_.W q q W.iX@ @                                               ",
"    T..XoXq W.|.E.3 3 1 + O % O % % & ; ; : ; ; ; % O + X X X X X + % O 5 6 1 : 1 1 0 oXoX6 +                                               ",
"      OX,XW.jXSX_._.W q W.q W.^.E.m.0 q `./.m.W W W m.T.R.^._._._./.N.m.q 0 6 N.tXOX^.oX@X0                                                 ",
"            W.OX! ^.m.0 E.! }.OX,X<XOXqXOXT._.6XtXaXrX5X*XoXXX|.^.E.! W 8 m.9 1 5 6                                                         ",
"                                + % ; % . + O O O : % . o o . o o                                                                           ",
"                                                                                                                                            ",
"                                                                                                                                            "
};
