/* XPM */
static char *ecdad32743824fd2f07cd76a6a88967f5DEnstaDanawGLRv[] = {
/* columns rows colors chars-per-pixel */
"70 70 256 2 ",
"   c #020203",
".  c #0C0B0D",
"X  c #08030A",
"o  c #0F0E11",
"O  c #060117",
"+  c #110E12",
"@  c #1B021C",
"#  c #170618",
"$  c #141215",
"%  c #19151A",
"&  c #1B191C",
"*  c #161419",
"=  c #120A0D",
"-  c #23081D",
";  c #1C0C26",
":  c #1E1D21",
">  c #191329",
",  c #090431",
"<  c #240B24",
"1  c #270727",
"2  c #2A142A",
"3  c #271728",
"4  c #290935",
"5  c #380736",
"6  c #2B1437",
"7  c #361537",
"8  c #320B2C",
"9  c #272328",
"0  c #362C35",
"q  c #38333A",
"w  c #302729",
"e  c #32231D",
"r  c #41063D",
"t  c #4E3536",
"y  c #6E3E3C",
"u  c #160E4F",
"i  c #380946",
"p  c #340F4E",
"a  c #382E4C",
"s  c #161270",
"d  c #310F71",
"f  c #322A6B",
"g  c #480847",
"h  c #460A57",
"j  c #590556",
"k  c #4B1351",
"l  c #453A48",
"z  c #4A2D59",
"x  c #47334F",
"c  c #571669",
"v  c #4E0F6F",
"b  c #680868",
"n  c #661778",
"m  c #710D77",
"M  c #502E6A",
"N  c #642367",
"B  c #4C4753",
"V  c #74574E",
"C  c #5A5268",
"Z  c #6E5674",
"A  c #716C76",
"S  c #62493E",
"D  c #800B7E",
"F  c #8A6854",
"G  c #966D54",
"H  c #957275",
"J  c #A77A71",
"K  c #936060",
"L  c #C27F7F",
"P  c #AE8A74",
"I  c #AD8366",
"U  c #CA9674",
"Y  c #D1A575",
"T  c #EFA87A",
"R  c #38118B",
"E  c #152897",
"W  c #25259D",
"Q  c #471797",
"!  c #561090",
"~  c #790C87",
"^  c #6E148D",
"/  c #742691",
"(  c #5817A7",
")  c #5211AC",
"_  c #6517B7",
"`  c #6D12AB",
"'  c #6F27B1",
"]  c #4D3298",
"[  c #3148AD",
"{  c #514D92",
"}  c #6D578F",
"|  c #776F91",
" . c #7667B2",
".. c #5757AE",
"X. c #3C2ED5",
"o. c #7317CE",
"O. c #4D33DA",
"+. c #7127C9",
"@. c #6F3CEA",
"#. c #6A26E3",
"$. c #536FC7",
"%. c #7171C3",
"&. c #7846EC",
"*. c #704BF0",
"=. c #7551EB",
"-. c #3762CB",
";. c #850A89",
":. c #970A98",
">. c #881796",
",. c #89128F",
"<. c #9616A9",
"1. c #9919B5",
"2. c #8E14AA",
"3. c #A60BA8",
"4. c #B50DB9",
"5. c #A618B8",
"6. c #AC10B3",
"7. c #8F2DB4",
"8. c #A725B7",
"9. c #922C97",
"0. c #94718C",
"q. c #AF7890",
"w. c #9A49B2",
"e. c #9074AF",
"r. c #AF76B4",
"t. c #995799",
"y. c #D16DAF",
"u. c #D561AF",
"i. c #9017D0",
"p. c #B113C6",
"a. c #9231CF",
"s. c #AA29C6",
"d. c #B031D2",
"f. c #9516EC",
"g. c #AB1BED",
"h. c #962DEC",
"j. c #B031ED",
"k. c #C613CB",
"l. c #CD12D5",
"z. c #DA18E4",
"x. c #D116EB",
"c. c #E71CEA",
"v. c #E91EF2",
"b. c #D739F2",
"n. c #CF34EE",
"m. c #E725ED",
"M. c #E829F2",
"N. c #F626F6",
"B. c #E636F3",
"V. c #F136F5",
"C. c #C82CD4",
"Z. c #9E50DC",
"A. c #A848D9",
"S. c #AE4BD1",
"D. c #957BC5",
"F. c #8D76CA",
"G. c #B074CD",
"H. c #874AF2",
"J. c #8857F6",
"K. c #9857F4",
"L. c #904EED",
"P. c #B847E8",
"I. c #B856E7",
"U. c #BA48F1",
"Y. c #A65AF4",
"T. c #AD50ED",
"R. c #966EEE",
"E. c #A865F7",
"W. c #B669F7",
"Q. c #B975F7",
"!. c #AD71EF",
"~. c #CD70CF",
"^. c #C546F2",
"/. c #C457F4",
"(. c #CE4FF2",
"). c #EE4DF5",
"_. c #C667F5",
"`. c #C778F8",
"'. c #D26CF5",
"]. c #F17AFA",
"[. c #DB5BD4",
"{. c #C238AF",
"}. c #738AD3",
"|. c #B28E8E",
" X c #9687B2",
".X c #A68BB6",
"XX c #B798B8",
"oX c #B490AD",
"OX c #AD9BA7",
"+X c #CF958D",
"@X c #D3A98F",
"#X c #EAAA87",
"$X c #F4B48C",
"%X c #F6B68B",
"&X c #E9A897",
"*X c #EBB599",
"=X c #F5BA9D",
"-X c #F6B896",
";X c #ECB18F",
":X c #C599A8",
">X c #C995B5",
",X c #D3AAA8",
"<X c #C9A5B7",
"1X c #D5A9B8",
"2X c #D9B4B9",
"3X c #D1ADAA",
"4X c #E6A8A3",
"5X c #EAB7A6",
"6X c #F5BBA4",
"7X c #F5BAA9",
"8X c #E8B7B8",
"9X c #F5BCB3",
"0X c #F5BDBC",
"qX c #F7BBB6",
"wX c #E9ACB5",
"eX c #E59EA7",
"rX c #FDC599",
"tX c #F4C38F",
"yX c #F8C4A7",
"uX c #F7C4B9",
"iX c #E8C7B4",
"pX c #D6C4BB",
"aX c #908DCB",
"sX c #A889CB",
"dX c #B687C5",
"fX c #B293CD",
"gX c #B5AACF",
"hX c #B985F9",
"jX c #B58CF2",
"kX c #A6A9EB",
"lX c #C699C8",
"zX c #CF94CE",
"xX c #C8A5C5",
"cX c #D6ABC5",
"vX c #DAB6C6",
"bX c #CFACD4",
"nX c #EAB9C8",
"mX c #F5BCC5",
"MX c #E8B5D0",
"NX c #C687F9",
"BX c #CA96FB",
"VX c #CF94F5",
"CX c #CEA6F8",
"ZX c #EB8CE0",
"AX c #F8C5C8",
"SX c #F8C6D5",
"DX c #F0D1D0",
"FX c #F5E5DD",
"GX c #D2CDF1",
"HX c #EDD5F5",
"JX c #D9E6EA",
"KX c #FEFEFE",
"LX c #F6F8FA",
"PX c #EDECF0",
"IX c #D4C6CB",
"UX c #B8C7FB",
/* pixels */
"O.@.O.O.O.*.=.!.!.K.*.*.H.h.J.*.*.*.=.J.J.J.K.J.K.K.K.H.K.K.K.K.Y.T.T.U.j.^.n.^.n.b.b.b.M.B.M.V.N.V.N.N.N.N.v.v.c.c.z.l.z.l.l.l.k.4.3.3.:.3.",
"O.&.Z.&.O.O.&.E.NXhXhXE.Y.K.K.K.=.*.=.R.J.J.Y./.U.Y.K.K.L.Y.Y.T.Y.T.T.U.U.U.U.n.^.b.b.b.M.M.V.M.V.V.N.N.N.N.N.v.c.c.V.B.c.l.l.k.k.k.4.3.3.:.",
"O.#.L.R.H.O.#.&.K.hXjXjXQ.`.W.T.J.J.J.J.J.K.'.'.(./.Y.Y.K.K.E.Y.Y.W.Y.U.^.U.^.^.b.n.b.B.b.B.M.V.N.N.N.N.N.N.N.v.c.N.).).V.z.l.l.k.4.4.3.3.:.",
"X.O.&.I.W.L.*.@.*.J.!.jXhXNXNXQ.Q.E.E.K.E.E._.'.'.W.E.E.Y.Y.Y.E.Z.Z.Z.T.T.U.n.^.^.b.b.b.b.B.B.V.V.).N.N.N.N.v.m.c.N.).).).l.k.l.z.k.4.4.3.:.",
"O.X.@.L.!.Q.Y.&.*.*.=.!.hXBXCXhXNXNX`.W.E.W.W._._.Q.E.Y.Y.Y.Z.D..XXXXXOX.XG.d.n.^.b.b.b.b.B.M.).].ZX).N.N.N.m.v.c.m.m.m.z.l.k.l.z.k.4.4.3.3.",
"=.O.X.h.I.NX`.E.H.J.*.J.R.hXBXCXCXCXNXBXNXQ.W._.W.E.W.NXVXlXfXgXfX.X<X<X:X<X.XI.b.^.(.b.b.b.B.ZX].].].V.V.M.m.z.m.z.z.z.l.l.k.4.4.k.4.4.3.3.",
"R.&.&.@.K._.hXNXW.J.H.=.=.!.BXCXVXVXCXVXBXVXVX`.`.VXfXaXe.e.e.e. XXXe.oX<X>XZXXXP.n.^.b.B.b.M.).ZX].).M.M.m.m.m.z.z.z.z.l.l.l.k.4.4.4.3.3.3.",
"!.Z.&.@.@.U.Q.NXNXW.R.=.R.J.E.hXNXVXCXVXCXCXCXVXbX%.F.sXsXaX Xe. .e.oXOX X<XvX:XoXb.b.b.b.b.b.M.V.V.N.M.m.v.x.v.z.l.x.z.l.l.k.k.4.4.4.4.4.3.",
"NX!.H.@.@.h.Y.Q.BXNX`.E.J.J.R.E.!.jXhXBXCXCXCXlX%.sXbXe. .sXXXxX<XlXMX2X2X| OX:X,Xr.b.n.b.m.n.b.m.m.M.[.[.[.[.y.y.y.y.y.y.u.u.k.p.4.3.3.3.3.",
"Q.Q.K.&.@.@.L.W.NXBXVXQ.R.R.F.R.R.jXhXBXBXBXVX%.aXlX%. .fXcXIXxX1XmXSXMXvX2X XgX1XeXn.n.n.(.[.[.zXwXwX7XyXyXyXyXyXyXyXyXyXrXtX{.p.4.3.3.:.3.",
"!.NX!.H.*.*.&.Y.W.NXBXG.aXsXaXfXF.R.jXQ.NXBXsX%.bXF. .aXvXxXMX>XMXSXMXcXvX2XgXaX.XuXzXzXwX8XuXuXqXqXqXqXuX9X9XuXuX7X7X7X7X6X&X4.p.4.3.:.:.:.",
"I.jXQ.K.*.@.&.H.Y.`.sXsXVXfXjXsXfX%.F.jXhXBXaXF.gX .e.fXlXvX<XMXSXMX .e. X3X<X..e.AXAXuXuXuXuXuXuXqX9XqXqX6X7X4X6X6X7X7X6X%X{.p.6.4.3.3.:.:.",
"I.Q.NXW.Y.&.*.H.K.G.jXVXBXNXNXjXD.sX%.NXQ.jXe.aXdX .e.xXxXvX<XgXSXMXlX%.xXvX3X .xXmX:X>X~.[.~.[.~.u.q.q.q.y.[.4X7X7X5X6X-Xu.6.6.5.3.3.3.:.;.",
"U.W.NXQ.Y.H.H.&.H.T.W.NXBXVXfXCXsXfXF.D.hXjXF.F.sX .e.xXcXvXXX .bXSXSXSXSXAX2XOXgXwX0.Z w.d.7.0.H H P J G +X&XyXyX6X7X$Xu.p.p.3.3.3.:.<.:.:.",
"P.I.`.NXkXNX(.H.H.K.Y.`.NXVXdXVXF.lXsXe.jXjXe. . Xe.sXfXxX2XsX%.SXMXSXmXAXMXuX Xe.:X0.@XJ P P P P @X+X@X@X@X@X4X7X7X;Xu.p.p.5.3.3.3.:.:.:.:.",
"j./._.CXCXUXE.H.H.J.Y.!.fXNXsXfXe.xXfXaX .%. .sXe.e.oXXXvX2XvXSXMXSXmXMXnXmXnX3XH 0.H @X,X+X|.|.|.I P P I U #XY 5X*Xu.p.p.p.5.1.:.:.:.:.;.;.",
"j.I.'.BXCXjXE.J.H.H.R.G.Q.!.fXsXe.cXXXlX.Xe..XvX ..XXXXX2X1X>XmXSXmXmXmXzXnX8X3XH |.|.A A |.|.I P P P P Y I U @XY u.p.5.5.5.6.<.<.,.;.;.;.;.",
"j.U._.'.NX_.W.K.H.L..XG.W..XcXD.e.cXlX.XcXnXnX X} 2XoXXX2X2X} ..lXmXMXzXnXAXwX3X|.H |.+XP P P +X@X@X;X@XF @XI Y K i.s.p.5.5.6.<.6.l.:.D D D ",
"h.j.'.'.'.`._.Y.L.G.dXG.!..XcXlX .e.lX.Xe. X| } oXDX0.1XXX2X X$.[ ] fXAXmXwX1X4X|.|.0.H |.P +X4X4X&X+X;XY I Y Y F s.p.5.1.3.<.:.3.p.:.m D D ",
"h.j.(._.VXNX_._.G.dXdXR.G.dXbXMXlXe.xXXXe. ..XvXDX XXX<X<X3XgXJXaX..W } wXwXwXwX|.>XSX@X|.@X@X7X9XiX&XY Y G Y Y K p.1.1.<.2.2.:.,.;.;.,.m b ",
"h.j.^.'.].'.'.~.G.xXXX!.G.dXMXzXDXDXxX<XoXoX:XOX XOX3XOX2X|. XgXaXaX X[ { AXmX,X,XH H H @X*X8XuX9XuX@X@XU G $XY 9.s.5.1.<.2.:.;.;.,.;.;.m b ",
"h.j.j._.'.].NXzXG.MXG.~.G.r.DXcXxXDXcX1X<XoXoXOX:XOXoX1X:X| 0..XaXaXJXgX0.0X0X+X5X3X@XiX3X4XuX7XwX&XY T F U rXG <.p.s.1.2.5.1.~ ;.;.D b b b ",
"h.h.j.U.).'.NXMXG.IXG.zXsXD.>XFXvXxXnX<X<X:X:X:X<X<X,X+X0.:XmXwXvXvX2X2XqXmX0XwX,X5XiX@XDXAX5XU U U U G I tXJ 9.s.s.L.d.1.2.:.~ D b D 3.D b ",
"h.h.U.U./.'._.MX~.bXlXdXzXG.e.lXDXSXpXnX3X<X3X<X:X|.q.} oXmXmXmXFXAX8X0XmX0X0XqX8X5XwX9X9XDXwXeXq.J J U +Xt.8.8.s.A.A.A.i.~ ~ ~ m b D 4.D j ",
"@.h.j.U./._._.zXMXzXMXG.oXzXG.t.e.oX<X1X1X3XOXr.0.} Z |.wXAXmX0XFXSXmXmX0X0X0X0XuXAXqXqX7XDXuXeXn.C.S.C.8.d.d.s.s.s.d.a.1.>.~ m b b b j j j ",
"h.h.j.j././.'._.zXMXMXIXr.zXbXcXoXt.t.} | } Z 0.0.OX2X8X0XmXmXmXFXmXqX0X0X0X0X0XqXqXqXuX7XqXLXy.C.d.C.C.C.d.s.s.8.1.8.<.>.~ ~ m b j j j j j ",
"h.h.j.j.^._._.'.'.~.zXMXcXr.~.zX2X8X2X2X2X2X8XuXiX3X0.:XmXmX0XmXPXAXqXmX0XqX0XqXqX9XuXyX9X7XFXSXd.d.d.s.s.8.8.8.8.8.<.>.,.~ m m b j j g r g ",
"h.j.h.j.U././._.NXNX_.G.>X>XzXt.t.e.|.OX|.|.q.H Z Z H 4X0XmX0X0XPXLXqXqXqXqXqXqX9XqX7XuXuXuXFXKX'.p.p.s.s.8.1.8.1.8.8.,.,.;.m b j j g g r r ",
"g.h.h.j.U././.NXBXVXNX.X>Xr.>XvX1XoX|.0.0.0.r.zX|.,X4X8XmX0XqX8XPXKXLXAXqX7XqX4X9X7XuXAXuXAXLXKXPXS.5.8.1.1.<.<.<.C.8.>.,.m m b ) ) v i 5 5 ",
"g.g.g.j.j.U./.`.CXjXNXI.>XnX>XoX:X<X,X,X3X3X3X8XiXtX4XqX0X0XqX<XJXKXKXKXFX0XqXqX4X9XDXDXFXKXKXKXPXG.1.1.1.2.2.<.9.>.>.9.~ m b ( ) ) ) p 5 5 ",
"g.g.j.j.j.^././.`.NXW.U.S.r.:X<X,X<X3X,X,X,X+X+XP H wX0X0XuXeX`.JXKXKXKXKXKXDXuX5XuXFXLXKXKXKXLXFXG.1.1.2.>.2.>.,.~ 9.m m b b ^ ) ) ) i 8 8 ",
"f.g.g.g.j.^.^.U./._.~.I.P.j.w.t.t.q.q.0.0.H Z } ' :X9XqX0XuX~.I.GXPXLXKXKXKXKXLXuXuXKXKXKXKXLXPXJXS.i.5.1.>./ ~ ~ ~ m D N N b k v ! i 5 1 1 ",
"f.g.g.g.g.n.U.^.I.~._.I.Z.j.h.a.a.+.' +.' +.+.@.a.eXqXqXqX1XI.A.bXJXJXLXLXLXJXPXDX8XJXPXPXJXJXJX.X1.7.a.<.^ ~ ^ m b n b N N k g g r 8 8 1 - ",
"f.f.g.g.g.j.P./.U./.W._.I.T.Z.d.d.h.+.+.+.+.' +.S.7XqXqX9Xy.A.I.~.3XIXIXIXIX2X,X&X-X&X,X2XIXpXr.^ 2.9.<.^ m m b b v b j j k ,.D g r 5 1 1 - ",
"f.f.f.v.v.g.C.j.I./.I.I.I.Z.a.b.n.g.+.+.+._ +._ t.uXqX9X4XS.S.A.r.&X&X&X&X*X7X7X7X7X7X=X;X&X#X^ / / ^ ^ n n b c j j g g k k 9.:.r 5 8 1 - @ ",
"#.f.f.g.g.g.j.j.^.I.I.I.I.A.A.^.x.C.+._ _ _ _ _ y.yXqX6Xr.a.7.a.S.#X4X7X7X7X7X7X7X7X6X6X7XrXq.n M n ! N n c v g h R ! i r r t r r 5 1 1 @ # ",
"f.f.f.f.g.g.d.j.P.^.I.I.I.A.Z.a.a.+._ _ ( ( ( _ 4X7XuX&X7.a.7.a.7.&X*X7X7X7X6X7X6X6X6X=X6X-X/ v v v c M c c k h W ) ) R r r t 7 5 5 1 1 @ # ",
"#.#.i.f.f.i.d.j.d.j.S.I.I.A.A.a.a.' ' ( ( ( ( } *XiX6Xt.' ' ' 7.7.&X*X7X7X7X6X6X6X6X=X6X=XU v ^ ^ n c c k k k k ) W ) d 8 r 7 7 7 7 7 1 @ = ",
"o.#.o.f.i.f.i.g.d.j.d.I.S.A.A.a.a.+.( ( Q ( R 0.7X7X6Xq.! ` ' 7.t.$X=X7X6X6X6X6X6X=X6X-X-XK v ~ ~ ~ h p k k k r u R d 1 1 8 8 8 7 0 8 @ # X ",
"#.o.o.o.i.i.i.i.d.d.d.P.S.Z.S.Z.7.' ' ] R Q R 9.6X7X7X6Xt.! 1.C.+X&X=X6X6X6X=X6X6X=X&X-XL d h c m v i 5 p 7 w 7 5 1 - @ @ - 2 7 7 2 < @ # = ",
"o.o.o.o.o.o.i.i.i.s.d.A.d.S.S.d.a.' ] ( R R f R q.6X7X6X&X! ^ y.#X&X=X=X6X6XyX6X=X=X=X$XN k p i 4 4 4 8 2 7 7 7 1 1 1 # # ; 1 2 r r e < # # ",
"o.o.o.o.o.i.i.1.i.a.s.a.d.A.a.A.w.' ' _ ( d d s M &X7X7X=X+XL #X&X=X6X6X6XyXyXyX=X=X6XJ p p p 6 4 1 1 @ i h < 2 2 2 < @ # < < # ,.9.3 < @ # ",
"o.o.) o.g.x.i.i.i.1.1.a.s.s.w.w.' ' ' ' Q Q s p s N -X7X6X=X#X&X=X6X=X6X6XyXyXuXrX-X%XN p k 7 6 1 1 @ @ i p < 1 2 2 2 < @ # @ @ r k 2 2 @ # ",
"_ o._ o.g.x.p.` o.1.1.7.7.a.a.7.7.' / ] Q d s u u u K -X=X=X;X-X-X-X-X6XyXyXyXyX-X-XU k p 7 4 8 1 - @ @ @ @ - < 8 2 2 < # # @ # % < 3 2 1 @ ",
"_ _ ` ) ` i.` ` 2.2.i.7.7.h.H.a.7./ / ! v p u u u , C T *X=X=X;X-X=X=X=X6X7XyXyX-X-XK 5 5 4 2 2 1 < 5 1 # # @ ; 3 2 2 2 1 @ @ @ - < 2 2 2 < ",
") ` ) ` ` ) ` ` ` ` ` 2.i.+.a.a.' 9.] ! f d u u , l T #X#X-X=X$X&X=X=X-X-X6XyXrX-X%Xt ; 8 1 < 2 < 7 6.b # @ @ @ < 2 2 2 2 < @ # @ @ 2 2 2 < ",
") ) ) ` ` ) ` ) ` ^ ` ` ' i.a.7.9./ ^ M d p p , f iX#X#X$X#XtX*X%X-X-X=X=X=XyX=X-XT e # @ - < < 2 2 k 8 < @ @ @ @ < < 2 2 < - @ @ @ < 2 2 2 ",
") ) ! ) ! ` ^ ! ` ^ ^ / ^ / / / / / ^ c h p 4 , OXKXPXiX*X$X#X$X%X#X-X-X6XyXrX-X%XT e X # # % < - 2 3 2 < < @ @ @ - < 2 2 2 < @ @ @ ; 2 2 2 ",
"Q Q ) Q ( ! ! ! ! ^ ^ ! ~ ^ ^ n m n N c p i 4 t T 4XDXLXJXiX;X$X$X$X%XtXtXtX*XtXiXFXB   = = # - - 2 2 2 2 8 < # # - @ < 2 2 2 < @ @ @ < 2 2 ",
"! R Q Q ! ! ! ! ` ! ! ~ ! m n n n c c g p 5 - K T T ;XIXLXLX5X$X-X$X$XiXiXDXJXPXPXFXV X X X X # - < 2 2 0 2 1 < ; @ @ 1 < 2 2 2 < @ # @ 2 2 ",
"v R R R ! ` ` ! ` ^ v ! n b b c c k h g g 5 4 U T $X-X$XiXDX%X%X-X%XDXLXKXKXLXDX5XtXI X     X X = # 2 2 2 2 2 2 1 - @ - < < 2 2 2 @ # @ < 2 ",
"d v d R ` ` ` ! v v v v v v v h h g g 5 5 ; t T T %X-X-X-X#X%X-X%X%XuXKXLXIX*X%X$X$X%Xt       # ;.j % - < 2 2 2 1 < @ @ ; < 2 2 2 < @ # @ < ",
"R d d d ! ! ( v v v v h h h h h g i 5 5 8 = y T T ;X%X%XtX$X%X%X$X%XiXJX*X$X%X$X$X;XtXY = X   = b r X @ - < < 2 2 2 < - @ - 1 < 2 2 < @ # - ",
"d d d d u R d d d d v d d h i i i 4 1 1 - X G %X%XtXrXrX-X$X-X%X%X$X5X;X%XrXrXrXrXrXrXrXI =   .     X = # # - 2 2 2 7 1 @ @ @ - 2 3 2 < # - ",
"v v M f v M d M v M z v p g p p 6 6 2 3 - - t V F F F V Y T %X%X%XtXF S F V F F F F F F F e $ $ % & % & # % 3 9 3 a ! 0 3 3 2 2 2 6 w w 2 2 ",
"M / C.9.M M M M z z z x x x l l t l t B C H C q 9 & X V J U %XY T Y P 9 o   o X X o     X * w l l l B V A Z V a q t l q 0 0 0 9 0 t 0 0 q 0 ",
"M M / N M M z 6 p a x x 2 < a C C } } }  XgXgX X} C |.+XF $X#XG U w T q % : $ = . $ . . * a C Z } } } fXIXaX| } } C C B t 0 : o % w q 0 0 q ",
"M M C M z M z i 4 4 x x a f f d { -.$.aXgXUXkX%. . .e.} +XrXJ U F   F F + :   . $ 9 0 q a f E ] ..%.aXkXUXkX%.$. . .} } C C B 9 : w 0 0 0 0 ",
"M M M z z z z x z 6 > u f { ..W [ $.JXPXHXHXHXJXaX$.[ t.AX@XB #X& o $ w w & $ + o o > u s W [ [ }.LXHXHXHXHXJX}.....[ ] { a 3 9 q q q 0 q 0 ",
"C z z z z z z x a O O , u d ..[ E -.kXUXGXHXCXkX$.[ W e.8XZ J G * 9 % : % : * &     , , u s E E $.kXGXGXGXGXkX-.[ [ ] ..f a 3 : 0 0 0 q 0 0 ",
"5 6 6 6 6 6 4 > 9 > X X , , s  XE E E $.}.}.[ E E E s u a > t 9 & 9 * & o & : 9 .     X , u s s E E $.}.$.E E E s s  Xa > 9 9 : e $ $ * % % ",
"4 4 4 > > ; > ; > 9 : .       a | > f { { { f , , , O         + & & o o . o $ * : $ .       O o , f C | { u , , , | B     X * : $ . $ . . . ",
"< > > > ; ; > ; ; $ & & & * o   q A C C C q 9     . X o $ & : & $ & o & & 9 * + : & : & $ o . . . q B B q q q B | l . * : & & $ . $ o $ $ o ",
"> ; ; ; * ; + * o o o $ * & : 9 o B C 9 B A B & : : : : & & $ $ o % . & $ . . . o . o * : : : : : & * B A B q B B o : & * $ . o $ $ o o o o ",
"% ; ; * # + + + o o $ o = $ : % . B q l | OXgXB . o $ . $ & o & . 9 & & o . & . & . & . & $ o $ $ . q OX X| B q B . o o o o o o $ o o o o $ ",
"+ + + + $ o + + o o o o $ & $ o   B B a C C | C . o o o $ o . . . o . . . . . . . . . . . . . . $   B | C C B B B . $ o o o o o $ o o o o o ",
"+ + + + o o + + $ o $ % & $ o $ . : B a a l C 9 . o o o o . . . o . o . o . o . . o . o . o o o $ . : B a q a B 9 . o o $ o o o o o $ o $ o ",
"& & & & & & & & * & 9 & & % & % & % & & & 9 : % & & & & & & & & & & & & & & & & & & & & & & & & & & % : 9 : : * * & & & & & & & & & & & & & ",
"& & : & & & & & & 3 9 & & & & & & & & & & & & & & & & & & : & & & & & : & & : & & & & & & : & & : : : & : & & & : & & & & & & & & & & & & 9 ",
"& & & & & & & & & & & & & & & & & & & & & & & & & & & & & & & & & & & & & & & & & & & & & & & & : : * & : & & & & & : & & & & : & & & 9 : : "
};
