/* XPM */
static char *e3cf339c217c4be2ab021a02dee9fc4bkThEAOa7Sy8EcFA9[] = {
/* columns rows colors chars-per-pixel */
"70 70 232 2 ",
"   c None",
".  c #030504",
"X  c #060A06",
"o  c #02050A",
"O  c #050A0B",
"+  c #0A0C0C",
"@  c #090906",
"#  c #0C110E",
"$  c #13120D",
"%  c #1B130E",
"&  c #0A0E12",
"*  c #060B12",
"=  c #0D1313",
"-  c #0D151A",
";  c #0E191A",
":  c #0B1514",
">  c #121414",
",  c #1A1513",
"<  c #121916",
"1  c #11161A",
"2  c #131C1C",
"3  c #1A1D1C",
"4  c #1C1916",
"5  c #120D0E",
"6  c #23130E",
"7  c #241D1B",
"8  c #271A15",
"9  c #361C1A",
"0  c #250F0D",
"q  c #16201E",
"w  c #19221E",
"e  c #2B221C",
"r  c #27231C",
"t  c #33241E",
"y  c #38261D",
"u  c #0D1925",
"i  c #151E21",
"p  c #191E22",
"a  c #151E2C",
"s  c #2C1E24",
"d  c #162122",
"f  c #1A2424",
"g  c #1D2825",
"h  c #1D2529",
"j  c #1E292A",
"k  c #15212D",
"l  c #182636",
"z  c #222625",
"x  c #222A25",
"c  c #222C2C",
"v  c #292B2B",
"b  c #272726",
"n  c #322521",
"m  c #342B24",
"M  c #3A2B23",
"N  c #3C2B2B",
"B  c #362A29",
"V  c #25312D",
"C  c #29322D",
"Z  c #3B312A",
"A  c #232D32",
"S  c #252737",
"D  c #263133",
"F  c #2A3435",
"G  c #2B3639",
"H  c #2D3A3B",
"J  c #2D3836",
"K  c #3D3431",
"L  c #313B35",
"P  c #313C3D",
"I  c #383735",
"U  c #3A2E38",
"Y  c #452B28",
"T  c #43332B",
"R  c #4A372D",
"E  c #55362E",
"W  c #4C3C34",
"Q  c #4C3B3C",
"!  c #473634",
"~  c #523B35",
"^  c #5C3C3C",
"/  c #573837",
"(  c #4D2D2F",
")  c #653B3B",
"_  c #6C363A",
"`  c #45291F",
"'  c #34423F",
"]  c #4A4239",
"[  c #54433C",
"{  c #5C423D",
"}  c #54483F",
"|  c #65433D",
" . c #70453F",
".. c #1C3755",
"X. c #1A2F48",
"o. c #333E41",
"O. c #3A3A4F",
"+. c #253956",
"@. c #273848",
"#. c #263F67",
"$. c #5B3E44",
"%. c #4C3F48",
"&. c #643D41",
"*. c #703B45",
"=. c #354344",
"-. c #3A4444",
";. c #3A4649",
":. c #3B4A4A",
">. c #384748",
",. c #294259",
"<. c #284466",
"1. c #374C66",
"2. c #2A4B72",
"3. c #33547C",
"4. c #2E5075",
"5. c #4B4645",
"6. c #5D4244",
"7. c #574A45",
"8. c #5A5249",
"9. c #4F5055",
"0. c #624344",
"q. c #6A4345",
"w. c #634C44",
"e. c #6D464A",
"r. c #674B48",
"t. c #734A4B",
"y. c #794B4D",
"u. c #734647",
"i. c #6B544C",
"p. c #665348",
"a. c #78524C",
"s. c #794C51",
"d. c #6A5955",
"f. c #785854",
"g. c #6C4C56",
"h. c #6D6458",
"j. c #7A625A",
"k. c #55586C",
"l. c #68586C",
"z. c #566B70",
"x. c #786C63",
"c. c #6F6C70",
"v. c #875957",
"b. c #935D5B",
"n. c #955A57",
"m. c #844C51",
"M. c #87645B",
"N. c #94625D",
"B. c #896B64",
"V. c #946B65",
"C. c #9A6A65",
"Z. c #88746B",
"A. c #98756C",
"S. c #977B72",
"D. c #907471",
"F. c #A76B69",
"G. c #A6766E",
"H. c #A87A75",
"J. c #B57876",
"K. c #B27271",
"L. c #9D5F62",
"P. c #9B887C",
"I. c #A9857B",
"U. c #B7847C",
"Y. c #C6847F",
"T. c #345B86",
"R. c #3C6895",
"E. c #3D6183",
"W. c #476889",
"Q. c #477198",
"!. c #577897",
"~. c #50708F",
"^. c #677B8B",
"/. c #4777A5",
"(. c #B97582",
"). c #C87E8D",
"_. c #6F8B98",
"`. c #5482AA",
"'. c #4D84B3",
"]. c #568AB8",
"[. c #5F93B8",
"{. c #6596BC",
"}. c #698CAC",
"|. c #7AA9BB",
" X c #5C97C6",
".X c #568FC0",
"XX c #639BC3",
"oX c #69ABD7",
"OX c #75B4DA",
"+X c #6DA8CD",
"@X c #76B9E4",
"#X c #7DCAEE",
"$X c #A68884",
"%X c #B88A85",
"&X c #AA9488",
"*X c #B69487",
"=X c #B99C92",
"-X c #BAA093",
";X c #85A7BD",
":X c #C6968A",
">X c #C49B92",
",X c #CD9B95",
"<X c #CA9090",
"1X c #CAA799",
"2X c #D5A89C",
"3X c #D2B19F",
"4X c #D9ABA4",
"5X c #DAB5A6",
"6X c #CEB2A6",
"7X c #E7B8AB",
"8X c #E9BBB4",
"9X c #E9B0A5",
"0X c #ECC7B7",
"qX c #F3C9BB",
"wX c #EFCBB9",
"eX c #8AB5CB",
"rX c #8BBEE4",
"tX c #93C6DD",
"yX c #83C8E6",
"uX c #85CCF3",
"iX c #8DDBFB",
"pX c #8AD6F5",
"aX c #94DCF7",
"sX c #95D4ED",
"dX c #92E3FB",
"fX c #99E7FE",
"gX c #8FE2F7",
"hX c #A2EAFF",
"jX c #F7CCC2",
"kX c #FAD6C7",
"lX c #EED0C1",
"zX c #FFE8D8",
/* pixels */
"                                                                                                                                            ",
"                                                                                                                                            ",
"                                                                                                                                            ",
"                                                          z x x b z b x b v v                                                               ",
"                                                      b z x g g g x g g g w x c V                                                           ",
"                                                  r w d w 2 w 2 w w g x c V x g g c C                                                       ",
"                                              3 d 2 2 2 < 2 2 w q g q g g c V c j c g v                                                     ",
"                                            < w 2 < 2 2 w q f w d d q g d g g c V g V c v C                                                 ",
"                                          > < < 2 < 2 q q ; ; ; < 2 2 f f g g c c V c V V V                                                 ",
"                                        > < = > < < < 2 = # X O + = & : < w d c x V V c v F C                                               ",
"                                      > < = < 1 < : # X X + # : > = * = O O : 2 g g V V V C L C                                             ",
"                                    + > > = < - = O O > < 2 q ; 2 d d 2 ; ; # O # 1 f V F C D L                                             ",
"                                    > = = > = * O = 1 2 q ; d q 2 q q d f w w q : o O 2 c F F L L                                           ",
"                                  > > = = = # X = < < 2 2 2 q ; 2 d i d f w d f g f - O = z F C L                                           ",
"                                  > > = = X X - > - ; < 2 ; 2 ; 2 i d d f g w f f h g d O & g F L                                           ",
"                                  # = = O O = = = - < 1 < ; 2 2 d 3 i q q w d f h g g c z & : x L L                                         ",
"                                $ # = X . # : : 5 = 1 < < < < ; < < : q 2 w w w g w g x V V # : V '                                         ",
"                                $ = = . # = : # = > = = : # # X X X X X + # # $ q q g g g V g X < L                                         ",
"                                = = o O # # * : = > = @ O # $ w m b w % $ $ # X X O < q g g V w O v                                         ",
"                              5 = O . + : = * = = + O # m K ] 8.} } ] ] ! m Z m t 4 # # : g x V # 2 L                                       ",
"                              5 = . X = # # # = @ # , Z ] ] 8.7.7.7.] ] ] R i.V.B.] K Z w # < C x # b                                       ",
"                              + O o + # # # X + $ 7 b Z Z 7.p.8.[ ~ {  .a.M.U.1X*X| ] ] ] m # < v 1 2                                       ",
"                              + X . # # # # , r e e r m } [ / ( ^ a.V.G.U.3X5X3X1Xf.R K Z ] ] w 2 f 4                                       ",
"                              @ . X # = O < r t r r m T Y ( g.B.%X>X:X2X7X0XwX0X2XG.{ Z m R ] 8.1 < <                                       ",
"                              o . + = X @ 8 r e r e t y q.G.1X4X4X4X7XqXjXjXkXkX0X1Xj.R M Z Z 8.] X >                                       ",
"                              @ . # + X $ r t r e 8 8 ^ B.%X2X8X7X4X7X7X8XlXlXlX0XwXY.} y m R R h.e #                                       ",
"                                @ X . % 6 e y t 6 6 8 M ~ f.A.,X4X>XU.H.B.S.$X$XP.U.5Xa.M y M R h.] #                                       ",
"                                . . 4 m e y e 6 t 0.j.i./ 0.v.H.:XJ.B.f.{ W 7.x.P.P.U.I.R R y R p.h.m                                       ",
"                                  M ! M m e 6 8 M W 8.g.6.6.| G.,X1XV.t.a.t.M.$X3X5XI.P.i.R ` T ] Z.h.                                      ",
"                                  ( ] t t 8 0 0 n h.5.d.d./ / C.9XqXV.u.) w.8.m [ P.3XP.M.| R M y p.x.                                      ",
"                                  T T e e 6 6 0 r.x.7 Q $Xb.t.v.9XqXS.s.m.&X8.v h.` p.U.I.M.] y 6 ] h.i.                                    ",
"                                  | M m e 8 y 9 q.D.d.Z.$X%XV.C.9XqX>X%XK.<Xx.! I.I.E I.U.I. .y 6 ' } p.                                    ",
"                                  q.t m 9 ` ( / ) a.v.v.C.A.n.F.7XqX7X:XF.F.H.H.I.U.U.I.3XU.M.8 y ` R p.                                    ",
"                                    n y ` E _ _ a.u.u.y.m.v.n.K.qXkX7X7XG.C.b.v.P.Y.7X0X5XY.M.y ` R R p.                                    ",
"                                    M t ` _ v.C.v.v.b.f.b.L.n.J.9XjX9XqX4XG.G.J.Y.7XwX0X3XY.P.` ` | R p.                                    ",
"                                    y 9 Y u.n.K.%XU.J.J.J.n.n.Y.9XjX9X7XkX0X>X*X7XqXwX7X3X3XP.` | M.E p.                                    ",
"                                    n e T a.b.K.U.<XY.Y.K.n.L.,X8XjXqX2XwXzXzXjXwXwXqX0X4X1XS.[ M.a.p.p.                                    ",
"                                    y 8 Z v.b.F.J.J.Y.J.C.n.F.:X8XjXjX2X:XqXkXkXqXwXwX0X5X3XS.d.I.a.                                        ",
"                                    T e n f.N.C.K.J.K.N.v.n.m.G.,X,X,X4XY.J.8XjXqXwX0X0X5X3XZ.j.Y.|                                         ",
"                                    ! B e p.f.C.G.K.N.a.f.) E u.L.F.M.V.U.C.:X9X7X0X5X3X3X3Xh.x.U.                                          ",
"                                  Q.1.S 7 $.s.B.A.F.N.V.{ , 5 9 / $.9 0.:XI.F.<X2X4X3X3X-X&X9.P.S.                                          ",
"                            }.[.]./.E.X.1 Q f.f.V.V.V.f.T % % $ 5 , z Z.-X>XG.H.,X=X&X=X&XP.8.]                                             ",
"                          XXXX X]./.R.+.u v p.x.B.S.p.R N n t 7 6 7 ! [ h.P.I.A.&X&X&X&X$Xh.5.b '                                           ",
"                          {.XX X.X'.R.#.a 7 Q f.M.M.T M W ~ R 0.0.W 6.8.8.h.B.I.I.&XP.P.x.d.P < L -.                                        ",
"                            {. X.X.XR.T.X.1 B { M.f.] ~ 9 0 9 9 ( ( ( $.%.( d.P.*X&XP.x.h.5.z.a c ;.-.                                      ",
"                              !. X/.R.T.X.& 3 K d.i.w.M.s.*._ _ _ *.m.m.*.( p.B.=XP.x.x.8.:.rX+.d -.;.-.                                    ",
"                            & l '..X/.T.X.u > b 7.f.j.V.b.v.m.m.(.).<X<X<X(.p.j.*XZ.7.9.' z.hX3.; -.;.-.:.'                                 ",
"                          4 i - X.]./.R...a & , M } f.V.v.y.) ^ *.s.v.D.(.=XD.B.S.h.] ] J |.dX`.u -.:.:.5.:.:.                              ",
"                        , 2 u < * +./.R.<.k o + , N r.M.v.a.~ n t 7 K d.A.=X&XB.j.] I b 9.sXiXXXl o.:.:.>.:.:.=.                            ",
"                        2 i 2 1 5 o 1.Q...u . . @ , T d.C.V.B.[ W 5.8.B.*X1Xx.8.7.U b h }.aXiXoX..G :.:.>.:.:.:.=.P                         ",
"                      i p p 1 & O + * 1...o o . . @ 4 5.B.Z.B.d.d.B.&X-X-XI.7.I J 3 < >.yXpXiXoX#.G :.:.=.:.>.>.:.>.o.;.:.>.                ",
"                    p f i p 2 1 * * . h k o o . O @ @ > ! 6.8.7.5.d.Z.$XP.h.I b 2 < 3 ^.pXuXiXoX2.S :.;.o.>.:.:.:.:.>.=.:.5.-.              ",
"                  3 g d p d i i 2 & O u * o . O > > + 5 , s U Z 7 K 5.8.7.! g < 1 p o.|.#XpXiXoX3.l -.-.P =.>.:.:.:.:.>.=.z.:.' ]           ",
"                  2 f d d d i d d - i G * O . l S 7 5 * & 1 , , & > n b 3 f - = 3 K k.yXpXpXpXoX3.l O.o.P =.=.>.:.:.>.:.:.9.' ' =.]         ",
"                p < q w d d 2 i p 2 i A * * * 1.@.s s , 5 5 5 @ O o > - & > > 4 I p.^.pXpXpX#X X3.l -.o.=.o.o.=.:.>.=.:.:.>.' ' =.:.5.      ",
"            7 z z d = = 2 d i i i 2 - c l o @.Q.1.B U B s 5 5 & 5 + 5 5 > > e 5.f.7.+XpXuXiX@X.X3.k o.o.H =.' o.>.>.:.:.:.' ' q < h P ;.    ",
"          1 p c h g d = & d i < 2 1 2 i p l !./.T.@.Y U Y s 7 , , 5 , 7 7 N r.j.i.9.sXiXiXiXoX'.4.k H H o.o.o.P ' ' =.>.>.=.>.=.* o O : D   ",
"        3 i z z h z h f & = i 2 ; < p p # ~.[.Q.Q.O.( ! Y Y N n n n N T W r.f.f.R _.fXaXiXiX@X'.2.k H H H H H H D H H =.=.=.=.=.D 2 - # O 2 ",
"      < p p b a j h h g f & = < 1 < p f O 1.!.Q./.k.Q ( ! ( ( ! ( ~ ~ / 6.e.g.s.! eXfXgXiXaXOX'.2.a H H G H H H H H ' ' ' @.H ' H j d f ; o ",
"      i p g h c j h g h h p * = i f i i = h ~.`..XW.%.Q %.%.^ ^ ^ 6.$.&.q.t.g.&.9.fXdXgXdXdX X].2.i H G G H H P ' G H ' D D D D H H j d f i ",
"    4 p d j h c k d h g g f 1 & i 2 i h p k ~.}. X!.k.&.6.%.6.^ &.0.q.*.e.t.e.( c.hXgXdXdXuX X.XX.a G G G G J H H G G G H H H G J D H j h G ",
"    3 i f h h g d f g d i d p 2 & ; p h f p ~.{..XXXk.&.6.6.6.0.0.q.e.q.t.e.q.N ;XhXgXdXdXuXXX/.l a G F G D c D D c D H ' G H D D j F F d H ",
"    3 p f f h d p g f i d g h z - 2 d h h - W.{..XoX~.%.0.0.0.r.q.t.u.s.q.e.^ %.sXfXdXgXiX#X XT.a c G G G H G j c j A H ' H H D F c c D d H ",
"  4 3 w d g g 2 d d d i d h c h - i d h h & 1.XX{.XX!.$.$.$.6.e.e.q.u.y.t.*.Y ^.hXgXiXdXdX#X.X+.A A G G ' =.H D j A j D D G ' D D V h S d G ",
"  w d d g g i i d f q d f h c g 1 1 a z h - X.[.[.[.{.g.^ $.6.0.t.e.u.y.y.&.Y eXdXiXgXaXiXuX/.X.H G A A H =.' D F A h j c F H D d d F A k D ",
"  7 f d g f 2 d f q 2 f g h c d - 1 p h f ; @.Q.{.[.{.~.*.6.$.0.&.q.y.y.t.( g.aXaXpXgXdXdXuXT.l ' J j g A =.>.=.o.c h h f h c c f q H D d D ",
"  4 f f f 2 2 w f < i f z h h p < ; 2 h g ; ,.4.}.XX+X_.e.e.&.^ $.q.t.s.*.( _.hXaXgXdXdXfX@X<.S =.G D f f H =.>.:.P h i : < C P D i j F f V ",
"  3 d g w < q f w 2 2 f h f h i ; 2 2 h d ; ,.3.E.OXOX+Xl.f.s.6.^ e.s.s.q.0.tXaXpXaXaXdXfXoX..A ' A G j d g g D F d 1 p j c J H H d f F f D ",
"  3 d g ; 2 d d 2 2 p d d d f 2 i ; i j d u 2.Q.#.+XuXyXc.s.v.*./ $.*.e.u.l.;XrXsXpXsXyXpXXXX.A P D h h d 2 2 g w i z G H c c P P g 2 A h h ",
"  3 g q ; q q q 2 2 i i d d d d i i d f 2 k E.`.T.W.aXpX}.t.a.e.e.&.q.q.s.s.*.l.k.!.{.OXrXQ.a @.o.=.c i ; u D L F A h D H c c F P h 2 A h g "
};
