/* XPM */
static char *c699e9f197734ec392377e27eefbd9abOShuEszEZ83z3MaE[] = {
/* columns rows colors chars-per-pixel */
"70 70 242 2 ",
"   c #000004",
".  c #02000B",
"X  c #050113",
"o  c #08021B",
"O  c #080529",
"+  c #13052D",
"@  c #110327",
"#  c #040633",
"$  c #0B0634",
"%  c #0B0A35",
"&  c #05093B",
"*  c #0C093C",
"=  c #060836",
"-  c #140634",
";  c #16073B",
":  c #1C073C",
">  c #14083D",
",  c #1B093D",
"<  c #1A0636",
"1  c #15133A",
"2  c #21073E",
"3  c #050C44",
"4  c #0B0B44",
"5  c #050D4B",
"6  c #0C0D4C",
"7  c #140944",
"8  c #1B0944",
"9  c #140C4C",
"0  c #1C0B4C",
"q  c #1B0740",
"w  c #0D124D",
"e  c #091245",
"r  c #17144D",
"t  c #050F53",
"y  c #0C0E54",
"u  c #0D0F59",
"i  c #130D53",
"p  c #1C0D53",
"a  c #140F5A",
"s  c #1C0F5B",
"d  c #041056",
"f  c #0B1254",
"g  c #05115B",
"h  c #0C115C",
"j  c #0F185E",
"k  c #13115D",
"l  c #1C115D",
"z  c #161757",
"x  c #230945",
"c  c #230A4C",
"v  c #29094C",
"b  c #210740",
"n  c #281249",
"m  c #230C54",
"M  c #2B0B55",
"N  c #240E5B",
"B  c #2B0D5B",
"V  c #320C5D",
"C  c #310B56",
"Z  c #2D1356",
"A  c #22115C",
"S  c #2B135B",
"D  c #23195B",
"F  c #31155B",
"G  c #34195C",
"H  c #051463",
"J  c #0D1364",
"K  c #05166B",
"L  c #0D156B",
"P  c #04186F",
"I  c #0D1A6D",
"U  c #0F1963",
"Y  c #141263",
"T  c #1C1263",
"R  c #141B63",
"E  c #14156C",
"W  c #1C146B",
"Q  c #131E6C",
"!  c #1C1A6A",
"~  c #1C1A63",
"^  c #061771",
"/  c #0C1771",
"(  c #051973",
")  c #0C1975",
"_  c #051B7B",
"`  c #0C1A7C",
"'  c #131772",
"]  c #1B1673",
"[  c #131975",
"{  c #1C1975",
"}  c #1D1779",
"|  c #131A7B",
" . c #1B197B",
".. c #260F61",
"X. c #2B0F62",
"o. c #330E63",
"O. c #370F6A",
"+. c #231164",
"@. c #2B1164",
"#. c #231A66",
"$. c #2B1965",
"%. c #23136B",
"&. c #2B126B",
"*. c #241C6A",
"=. c #2C1B6C",
"-. c #331365",
";. c #32116C",
":. c #341869",
">. c #241573",
",. c #2C1574",
"<. c #241B73",
"1. c #2B1D76",
"2. c #251779",
"3. c #2C177A",
"4. c #231A7C",
"5. c #2B197D",
"6. c #341474",
"7. c #3A1374",
"8. c #3B1B73",
"9. c #34167B",
"0. c #3A157C",
"q. c #331B7C",
"w. c #361D75",
"e. c #152276",
"r. c #15227A",
"t. c #1C2276",
"y. c #1D206F",
"u. c #2B2175",
"i. c #23227C",
"p. c #2D227C",
"a. c #252072",
"s. c #37217B",
"d. c #43137C",
"f. c #42177A",
"g. c #041D83",
"h. c #0C1D83",
"j. c #051E88",
"k. c #0C1E8A",
"l. c #141C83",
"z. c #1C1C84",
"x. c #141E8B",
"c. c #1B1E8C",
"v. c #1C1F92",
"b. c #131F90",
"n. c #231B84",
"m. c #2B1A83",
"M. c #231D8B",
"N. c #2C1C8C",
"B. c #3B1783",
"V. c #331984",
"C. c #3A1885",
"Z. c #341B8B",
"A. c #3B1A8C",
"S. c #361782",
"D. c #241F91",
"F. c #2B1E93",
"G. c #2E1F9A",
"H. c #321E93",
"J. c #3B1D94",
"K. c #341F9A",
"L. c #3B1F99",
"P. c #04208E",
"I. c #0A208B",
"U. c #022087",
"Y. c #152483",
"T. c #13238D",
"R. c #192A8E",
"E. c #1A2488",
"W. c #042294",
"Q. c #0C2194",
"!. c #0B239B",
"~. c #06249C",
"^. c #142193",
"/. c #1B2194",
"(. c #15239B",
"). c #1C239C",
"_. c #172A9A",
"`. c #2C2282",
"'. c #2B238B",
"]. c #21228A",
"[. c #33258C",
"{. c #362386",
"}. c #242195",
"|. c #2B2294",
" X c #24229B",
".X c #2B229C",
"XX c #272B9E",
"oX c #342394",
"OX c #3C2493",
"+X c #33229C",
"@X c #39249C",
"#X c #332B9D",
"$X c #3A2B9D",
"%X c #362A97",
"&X c #0427A4",
"*X c #0C26A4",
"=X c #0E27A9",
"-X c #0329AA",
";X c #0B28AB",
":X c #0427A8",
">X c #1425A2",
",X c #1C25A3",
"<X c #1427A9",
"1X c #1C26AA",
"2X c #1A2CA7",
"3X c #032BB2",
"4X c #0B2AB5",
"5X c #1B2AB4",
"6X c #1C27B0",
"7X c #2324A3",
"8X c #2C24A3",
"9X c #2426AA",
"0X c #2B26AC",
"qX c #2428AD",
"wX c #2B28AD",
"eX c #2929A1",
"rX c #3423A4",
"tX c #3A22A4",
"yX c #3C2CA3",
"uX c #3225AB",
"iX c #3A25A9",
"pX c #352BA8",
"aX c #2429B3",
"sX c #2B29B3",
"dX c #2929B3",
"fX c #332AB3",
"gX c #2C31AB",
"hX c #421684",
"jX c #431983",
"kX c #441789",
"lX c #42198C",
"zX c #491688",
"xX c #421B92",
"cX c #431E9C",
"vX c #4A1B95",
"bX c #422289",
"nX c #442598",
"mX c #481FA1",
"MX c #4123AA",
"NX c #422AA8",
"BX c #5325A7",
"VX c #022FC0",
/* pixels */
"8 8 ,.9.8 p 3.5.V.OXp.u.OX[.@X>.i i p i a i a W } ] W } 6 z.G.k u Y k k L Y z.| J Y ' & 4 x.l.b.b.` ` k.| k.=X<X!.=XQ.H W.P.g g g d g g t d ",
",.S.Z.9.9.Z.Z.A.Z.OXnXOX[.OXF.Z.m.m.m.m.m.2.n.n.F.n.n.} M.D.D.v.c.M.M.v.v.7Xv.v.v.,Xb.v.>X6X,Xx.b.b.b.x.Q.!.!.!.!.*X!.!.:X:X~.P.j.j.j.W.:X&X",
"&.B 0 X.p &.J.m A $.+.=.+.W ..s %.T T T i W n.T ] W a W W Y Y E W k k E E 9Xv.l.l.c.v.1X).,X6X1Xb.l.) h.6X=X` ` k.h.K K h.^ ^ K ( K K ( 3Xg.",
"X.S.,.9.+.&.nX=.+.$.=.=.+.+.%.>.s p %.T s 2.>.a T i 6 9 i i 9 i u 9 y E E dXv.z.v.v.b.v.,X).>Xb.L h.h.l.b.>X^ ` k.h.` g.h.j.^ ^ ^ ^ ^ ^ &XH ",
"0 ..,.&.m ..bX,.s.$.+.l l l +.+.9 s T >.%.T %.4 i s a 4 i a a a i u Y 6 Y 7Xz.' v.7Xc.v.7X1X1Xb.v.b.b.| h.b.` h./ k.l._ ^ _ _ k.j.^ d H -XH ",
"&.B B c p V.@Xw.S +.N ....s p a p s p 9 9 2.G.%.9 i 9 7 4 i * $ 4 i 9 u ]  XE u u J J Y E J E E ' / h u x.b./ J u g t g g g H K K ^ g.~.3Xj.",
"xXA.C.C.xXA.C.bXA.Z.J.J.H.J.MXtXK.H.H.K.K.K.G.rXF.G.F.a T n.M.z.M.c.G.dXdXdX0X7XG.).7X7Xv.v.c.l.z.b.v.>X6X6X<X>X=X<X<X>X=X*X!.!.~.:X:X:X:X:X",
"0 c 0 0 p 0 m m 0 p p 0 p 0 H.,.>.m.V.F.m.2.m.>.] 2.F.T i G.G.W ] } ] } z.} } } ' z.z.b.).aX' ' b.| ` l.h.` l.h.h.l._ J *Xk.L K H ^ H t g H ",
"c 0 c 0 0 8 0 q 0 p p p ....Z.3.%.,.3.m.2.>.>.2.>.2.G.W a F.F.T ] } W Y k a 6 k Y k E E | aXz.b.' | ' L ' L l.h./ / L t Q.Q.L g.K ( h.d 5 g.",
"m m m m c ; > > > - > 7 7 7 V.s ,.3.m.>.m.Z.m.2.>.2.N.N.2.D.G.Y T ] W a z k y a k h Y E | v.' c.l.l.' J / ) ' J y 5 L u ) Q.^ ` _ h._ g.K _ ",
"8 c m 8 + > ; > 8 p &.B 0 &.H.&.2.2.3.3.m.2.>.2.>.W T W 2.M.F.W W T l T ! Y E W ] [  .[ ' z.E 4 * * 3 4 6 4 & 3 5 y d d / k.) L h K K ^ H K ",
";.6.7.;...9.S.X.,.C.J.J.J.J.Z.J.V.m.Z.Z.H.K.L.H.K.tXiXuXrXiXuXrX8X8XpXrX#XpXfX7X8X8X7X X7X9XD.l.l.x.v.x.| | l.v.,X>Xb.b.<X<X>X!.Q.Q.k._ k.!.",
"B c B m m B.xXN m m N s 8 0 p ..N p p %.+.>.K.>.N.m.m.N.m.4.n.n.n.|.#Xn.a.|.8Xn.D.c. .E  .z. .E z.v.z.J l.6X' ) x.` / / / / ^ / J / H H _ 4X",
"S ; ; c N xX9.m m p 0 B %.&.N +.p p T +.9 +.L.3.F.N.m.2.n.4.n.m.n.`.4.{ ~ ].0XD.G.M.} [ [ z. .' ' ' ' ' ' ,X| L J ' | / | / / H d g ) H _ ;X",
"X.B c B c 0.C.c 0 0 0 ....p 0 p 0 p s N 9 p N.>.m.3.>.>.m.2.%.4.p.a.#.*.l n.8X] z.E ]  .Y E ]  .' ' | ' u ).' u ' ` ' L / / / L / K / d ` =X",
"kXlX0.0.0.vXmX9.6.6.9.6.0 > 8 7 p ..,.3.%.3.H.>.%.%.s l %.l ! p.5.[.`.4.! n.|.{ W E ] W W E [ E a ' ' ' z.1X,Xl.' ' / ' / / / ` ` | k.h.=X!.",
"0.hXkXB.vXkXB.B.A.vXA.A.J.A.J.V.V.V.3.5.J.Z.Z.H.Z.N.oX+X[.yXyXyXyXfX+XG.fXuXfX8XD.G.D.7X0XsX7XsXsXdX9X9X,X,X9X1Xv.,X,Xx.).(.L L L H / L K ^ ",
"O.kXhX7.B.7.6.;.X.X...N N ;.C.8 ..m +.m &.%.7 A %.Z.Z.5.+.[.yX1.[.m.] n.G.G.G.D.W Y z.M.M.sXD.c.c.z.c.z.[  .x.c.l.| x.L b.| & 5 # # & # # # ",
"-.O.6.7.@.;.kX6.X.X.S.B.S.&.J.N +.&.V.3.A.Z.%.Z.Z.iXMX$X@X$XNXNXiXK.K.fXuXG.8X8XM.M.8XM.Y sXz.y u E ' Y E E k Y u h l.w [ [ o 5 y 5 H 5 t 5 ",
"< < < q c c m c B m N N &.;.S.q 0 +.p 8 %.5.&.,.&.>.,.p.#.u.[.Z.rXK.n.N.n.n.N.n.D.G.} i 6 G.} u u a 4 6 y u y y y u y O E.R.= # & & 3 & # O ",
"B o.B o.B M x m m m m m M &.C.S.C.V.S.3.3.C.L.J.V.1.,.,.5.OX+XK.+XH.m.4.2.2.n.n.4.n.} } } D.D.z.z.z.z.z.z. .l.| | | | ,XwXXXXX_.b.| | | ) h.",
"V o.;.7.;.;.hX0.6.0.0.B.C.B.C.C.9.B &.,.3.J.J.5.Z.OXyXH.m.H.Z.Z.2.N.uXtXG.rXM.n.n.n.M.D.M.z.M.G.8XsX8Xc.z.9Xv.v. . .| t.R R t.[ J H L / h.b.",
"v M X.M v X.lXO.M X.;.B.9.X.&.C.%.q 8 p s J.J.s #.s.q.&.>.H.N.H.N.m.m.n.T rX>.Y i W T a a a } 0XD.D.v.E u D.l. .Y Q R { J z R h 4 y 5 h ` b.",
"M O.o.o.o.0.hXo.X.X.X.X.m 0 m B &.&.......bXJ.=.$.{.$.1.J.oXF.iXK.m.m.+.Y K.2.T ] } 2.] ] T D.D.M.} Y }  .7X .' | ].t.i.t.! J J x.J 5 H ' >X",
"x x c v M B 6.B v B m B m 0 m p m B ..N m =.s.S D S D +.%.%.>.+.T T +.s 9 N.>.Y ] %.W W Y E k Y i 6 i Y Y /.E R t.{ ~ R f u Y Y L J J L ) k.",
"d.f.d.hX7.d.zXkX0.7.7.6.6.;.X.;.9.9.Z.V.q.B.{.8.s.,.%.%.s p %.3.3.m.N.N.F.K.m.2.n.m.n.2.2.n.n.M.M.M.D. X8XqXfXgXeXXXXX}././.l.T.v.v.b.v.v.b.",
"M o.V v M M c c B N m N M ..xX6.B.6.6.,.8.$.D $.$.+.&.%.s 3.%.a p * s %.] 2.%.W s ] } ] ] 0X.X.X}..X}.}.].'.t.`.i.].].f )./. .E J x./ l.k.g ",
"M v x v O.M v c v c M B 8 m hXX.6.C.bX0.{.,.F @.N ..p s ,.J...9 T 9 9 9 a T p a 9 a a s %.G.8X.X.XD.z.M.i.! ! R a.t. .h c.,X/.l.' v.b.x.| u ",
"C C V d.v C M O.B B v c ; N 7.0 m A w.:.:.s.=.m N %.%.N p J.p 9 7 7 7 * 8 > * 7 $ 4 4 4 l F.n.n.W ] ] ] { p.].'.E a ' y z.c.Y | | | ' J / u ",
"b v 2 v < v M M M M M X.M 6.0.B 0 Z G @.s.@.&.6.,.9.S.3.K.mXV.+.%.+.s s T s s 9 p T T >.4..X] W E W W E Y E 4.'.n.z.c.[ v./.E E ' | ' ' ) / ",
"d.d.d.d.zXzXd.zXkXkXzXkX0.kXxXnXBXlXnXbXs.lXA.&.,.9.S.S.m.m.V.Z.V.m.3.m.m.K.F.H.H.K.+XG..XG.G..X.X8X.X#XpXXX.X}.7X7XD.9Xv.z.v.v.v.,Xl.| x.v.",
"C V V o.V d.d.7.X.v c c 8 x v 0.8.8.bX8.B 6.C.+.&.p 0 %...0 0 +.>.T p p T H.2.%.T T ] 4.>.] ] Y W } `.p..X0X] i } Y Y  .E 4 & u J J J y ' 1X",
"v V C C M O.d.: B X.M c x c N 6.8.o.kX6...B.A.&.&.8 8 ,.&.0 p >.&.>.s p T K.>.%.4.9 %.>.4.{ <.*.%.`.`.'.#X8X' k Y Y Y a E a y 3 y J E J | v.",
"C v v v : M V v V B B v c M m : S 0 X.S.0 6.A...p 0 p %...0 9 +.N p p T %.K.T %.p 7 s a i W Y #.a.r 1 4 >.7Xk i i 6 y u 6 5 u = & y 6 u ' x.",
"v b 2 2 2 V O.M v c M m M B M ;.;.-.;.6.B.mXmXmXJ.A.A.S.2.,.3.3.m.V.H.H.tXtXK.H.|.oXN.4.>.W ] <.i.p.#X|.G.0X7XG. XD.v.z.| z.z.z.v.z.x.l.v.6X",
"C V o.o.-.O.-.-.M M c B M 6.kXB.6.9.9.B.&...&.&.&.,.,.,.3.A.3.%.%.+.%.%.T %.2.>.>.>.] 2.2.G.`.`.'.#X!  .D.D.7X8X XD.v.D.7XdXv.x.x.z.b.v.v.b.",
"X X X X .       X X O @ @ B C.; c &.m m 0 ..X.&.&...%...p ,.+.+...T >.2.T %.W %.T T a T #.|.a.T ! i a u i u Y Y i u u k c.v.k J Y 6 u / | l.",
"X @ v @ @ o   o - - 0 c : N xX; 8 ; 0 8 &.9...S.,.&...%.s V.3.9 a T %.T >.>.W >.T Y a T u.#Xi.a.! k W ' ] E Y E E ' l.Y c.z.k x.b.J J l.J 6 ",
"  X o X .       o o + + $ M kX; 0 ..m 8 m ,.%.,.,...%.%.s 3.>.s T %.>.2.%.>.W %.T T k #.! oX4.Y a a Y k a u Y Y i u Y J c.c.u / ' t h ) ) / ",
"2 x x v c b b , : : - 8 q ;.lXX.X.6.&.,.0 p ......%.......3.>.N T ....W s T W W #.*.l ! a.#Xi.] } n.a Y ]  .c.c.z.' ' l.).9Xl.' L L | l.x.x.",
"C C M M M 7.d.;.B B B ..-.;.;.C.0.9.9.V.J.cXL.cXL.J.J.Z.N.Z.N.m.m.N.H.H.K.K.G.F.+XyX#X[.'.4.4.4.].}.8X0XwXdXdXdXdX9X9Xv.v.v.v.1X1X).>X(.>X>X",
"v 2 2 2 < x M 8 m c m c 0 m 0 ; p 8 B ,.m 9.J.,.%.p ..+.s p 0 W T s T >.n.+X>.4.k D *.~ i T E k Y 9 4 w }  XE k Y u u u y 6 u 6 5 y y y [ (.",
"v F V B m O.7.q o.;.B m c m N &...N B.V.N Z.H.B ..7 8 3.>.9 p >.%.%.a s T +XW W >.9 a.E ] } E W { ] Y E /.9XE k J Y J J L u u 3 6 J J J ` b.",
"M V M B B 7.B.B m c 8 0 8 8 m &.@.&.V.&.N 9.V.%.>.p 4 %.%.9 9 %.>.W s 9 T G.2.%.! k ! 4. .W { Y Y  .z. .}.0X' u E u u L L 4 # t g J J t ) <X",
"f.f.jXf.jXkXhXlXkX9.0.0.;.6.9.J.mXV.J.V.,.Z.Z.+.+.>.,.3.%.+.%.4.2.%.T >.2.G.n.n.n.M.D.F.D.M.M.M.D.}.M.v.9X9X/.z./.v.c.).z.L [ l.l.T.) L ` >X",
"M Z G G F -.-.o.&.;.6.6.&.C.J.6.,.6.,.9.3.3.3.9.3.V.Z.N.tXiXK.m.Z.n.>.m.m.n.4.} 4.4.n.M.}.8XM.z.z.z.z.z. .z.c./.).).).b.,X,Xx.l.T.^.x.` Y.h.",
"v G S -.n Z m X.M m 8 8 : m 3.: > 0 p p B %.+.N N >.,.l l +Xp 7 * * > * 4 $ $ * $ 4 * 4 a }.] ] E Y E Y L ' | c.E J ' y l.x.d / ' / I h ) U ",
"F F v -.8.M m B N m ..B 7 B C.N ,.S.Z.V.3.3.+.T T T p l >.K.T a T a i 4 a a 9 i 6 i i a ]  X7X7X}.M.z.v. .[ E ' L E l.J x.,Xx.x.` ^.Q.` ) R ",
"n :.Z n N v 8 q m 0 8 m p m J.6.9.3.3.,.,.+.p s s ..l T +.m.T 8 9 O i a T W Y k i Y E Y E 9XXX X}. XE.v.| ' Q E ' l.| 5 T.(.l.L g ^.` h.R.f ",
"f.f.f.0.6.7.0.9.B.9.6.6.,.&.9.,.V.V.C.Z.9.2.2.,.>.>.2.2.l T >.n.2.4.N.F.F.|.n.n.M.n.n.M.n.D. X X). X7X9XdXaXaX1X,X,X).T.1X).x.^.T.!.I.Y._.h.",
"Z G S S X.-.9.6.N ..@.+.B p m s A +.%.%.+.,.3.l T s s T s s #.Y W W ! T k |. .W ] W ! E Y Y k Y f u J E E /.l.| | | ) J h Y L I e.) Y.r.R.R.",
"Z V m B ..;.0.B N B M N p 8 m p +.@.+.+.l 3.[.T s 2.s 3.N.G.N.+XN.{ z.T i .X} T } }  .} } E z.z.{ E f ' | ).E I l.| J ' / H H L _ Q w j Q Q.",
"m o.;.B B ;.xX&.B @.;.9.&.N %.S.,.p 0 p s L.K.+.+.2.%.T m.+X'..XG.N.4.{ Y 8X{ Y k W E u k k c.9X/.c.l.E Y ,X| | L | Q L J g g j Q j w Q Y.~.",
"c m B @.N @.lX6.&.,.q.C.A.3.3.V.%.7 p T +.Z.H.%.3.m.oX[.<.'.m.].{ n.8X8XM.wXn.{ [  . . .{ E  .).7XqX7X| E 1Xc.x./ [ L L J h Q U z f U Q ` j.",
"6.6.6.0.6.@.A @.&.&.&.+.&.6.J.A.J.Z.Z.V.N.+XrX+X+XF.Z.oX%X$XyXpX|..XG.M.|.n.M.M.M.c.].}.}.).7X/.,X).7X).).^.^.T.x.x.T.<X(.R._._._.R.R.U.P.!.",
"- < - 8 c 8 8 8 0 8 p 0 s +.5.0 l +.l 9 A 3.1.>.T T #.*.l p.[.|..XF. .2.] 4. . .z.M.E y 6 }.[ J h k f t w h h h y h w f ^._.R j z e e 3 = = ",
"B m ..&.N @.9.&.&.&.9.9.Z.9.H.p p >.%.+.Z.N.>.H.Z.rXyX%X|.%X8XrXfXrX8XwXwX X8X8XXX X Xz.u dXz.f h J J h J L d y y H ( O I ` X & j 5 g e d 3 ",
"6.lXhXB.6.6.B.3.+.m ,.+.+.+.V.0 %.+.3.<.5.2.i +.1.#XyX[.p.'..Xn.|.M.4.}..X}. X XE Y c.c. .aX/.[ ' [ l.| ) | | x.` L Y.[ R.` # f 3 & 5 # # & ",
";.0.C.6.xX9.;.6.9.V.,.9.V.Z.OX3.,.>.T T 5.2.#.m.[.`.[.'.4..XfXM.D..XM.M.sXwXwX7Xc.M.E.7XaXdX1XaXaXaX,X1X^./.>X(.T.(.(.Y.2X_.g d 5 5 e d 5 d ",
"xXxXxXA.cXnXMXJ.OXL.J.Z.&.T m l *.5.Z.Z.m.oXNX`.`.p.p.n.4.2.n.M.}..X8X XD.D.XXc.z.z.z.z.l.z.l.z.l.x.x.T.,X5X5X_.T.| T.R.R.Y.r.U.I.P.W.W.-X~.",
"&.@.N S m 9.J.0 0 0 p l 0 > 7 7 7 9 p s r p `.1.<.1.T k >.Y W W ] W k k a } XXY ' Y E ' h J ' E f L / J h (.` j e.e.Q Q Q I K K P K P g U.-X",
"@.8 7 m m J.V.p m p p +.1.>.s ..p i T %.D #.$Xp.%X'.n.n.n.n.4.M.M. .' ] E M.dXv. Xz.[ | /  .| |  .` ) | ' >X) L e.Y.r.e.( _ ) K H P ( H _ -X",
"N - 8 c p C.Z.m p 8 p p 8 p p T l p p %.#.=.yXp.'.n.4.4.n. .n.n. .M.M.z.k c.9Xz./.c. .E [ /.| L | T.| J ` <X) r.r.r.r.I I P K g d g P g _ 3X",
"&.6.9.,...S.J.%.,.3.V.m.m.3.>.m.2.%.4.4.m.N.pX[.G..XuXwX8X.X7X.X7X0XdX}. X0XdX).7X,X/.T.).).^.x.x.).^.h.R._.Y._.2X_.I.Q.!.!.~.~.W.W._ _ W.-X",
"m A A 0 8 0 8 0 p #.,.&.%.H.tXH.m.m.[.[.N.`.`.M.n.n.4. .n. X.Xz.z.{ W { [ } z.z.T.c./.x.z.).x.t 4 w g g f r w Q e.r.( I P.~.j._ ( ( _ ( ( P ",
"0 c p c ; % > > 8 i 7 * $ > 5.0 %.1.`.u.n.m.2.] 2.W { n.4.M.}.Y Y E Y h h h u y u h Y J ' l.h I L J f f Q [ z w % # g 3 H g.( ( ( _ ( _ ( ( ",
"m 0 m p 0 7 7 > 8 7 p p s T [.5.p.p.[.`.'.4.4. .{ n..X4.W }..XY E  .E Y k f 6 h J J L ' | 5Xx.>Xh.T.Y.I e.r.R.R._ _ _ g !.!.( _ ( _ _ P d _ ",
"0 7 8 7 0 p m r 8 i 7 7 0 9 oXu.=.p.`.'.4.>.4.] W ] D.Y 9  XD.E ] ' E E ' E Y E J L ' | x.5XL ) ` ' e.t.r.r.r.( I ( H f ~.U.H P H ( P 5 t P ",
"9.9.3.q.9.&.,.3.m.5.m.m.5.m.iX$X@X%X#X.X.XN.N..X]..X.XY Y }. Xc./.c.}. XdX,X9X,X,X1X1X1X1X5X^.h.Q._._.2X2X2X&X*X;X;X-X&X3X-XP.P.P.W.U.P.P.W.",
"Z.9.,.&.m.MXtXm.,.2.3.5.3.p.u.p.=.*.T T W 8X0XN.W Y k 7 6 i 4 6 i h Y /./.qXx.E J Y L Q L J J L J U Q e.~.;XI.( P K K P P _ _ U.U.W.3X3X3X-X"
};
